<svg width="225" height="49" viewBox="0 0 225 49" fill="none" xmlns="http://www.w3.org/2000/svg">
<mask id="path-1-outside-1_11002_16422" maskUnits="userSpaceOnUse" x="-0.479492" y="9.37793" width="34" height="23" fill="black">
<rect fill="white" x="-0.479492" y="9.37793" width="34" height="23"/>
<path fill-rule="evenodd" clip-rule="evenodd" d="M0.520508 10.8746H2.54333V14.6332C3.9037 12.4445 5.80303 10.3779 9.55979 10.3779C13.231 10.3779 15.5017 12.4865 16.6579 14.9224C18.0204 12.5691 20.2893 10.3779 24.2527 10.3779C29.2436 10.3779 32.3413 13.892 32.3413 19.1784V31.9474H30.3172V19.4253C30.3172 14.8848 27.9673 12.2401 24.0861 12.2401C20.5372 12.2401 17.4408 14.9638 17.4408 19.6772V31.9474H15.4173V19.3017C15.4173 14.9224 13.024 12.2401 9.26937 12.2401C5.51414 12.2401 2.54333 15.5449 2.54333 19.7996V31.9474H0.520508V10.8746Z"/>
</mask>
<path fill-rule="evenodd" clip-rule="evenodd" d="M0.520508 10.8746H2.54333V14.6332C3.9037 12.4445 5.80303 10.3779 9.55979 10.3779C13.231 10.3779 15.5017 12.4865 16.6579 14.9224C18.0204 12.5691 20.2893 10.3779 24.2527 10.3779C29.2436 10.3779 32.3413 13.892 32.3413 19.1784V31.9474H30.3172V19.4253C30.3172 14.8848 27.9673 12.2401 24.0861 12.2401C20.5372 12.2401 17.4408 14.9638 17.4408 19.6772V31.9474H15.4173V19.3017C15.4173 14.9224 13.024 12.2401 9.26937 12.2401C5.51414 12.2401 2.54333 15.5449 2.54333 19.7996V31.9474H0.520508V10.8746Z" fill="#004B87"/>
<path d="M0.520508 10.5746C0.354822 10.5746 0.220508 10.7089 0.220508 10.8746C0.220508 11.0403 0.354822 11.1746 0.520508 11.1746V10.5746ZM2.54333 10.8746H2.84333C2.84333 10.7089 2.70902 10.5746 2.54333 10.5746V10.8746ZM2.54333 14.6332H2.24333C2.24333 14.7672 2.33216 14.8849 2.46099 14.9217C2.58981 14.9585 2.72741 14.9054 2.79813 14.7916L2.54333 14.6332ZM16.6579 14.9224L16.3868 15.0511C16.4346 15.1517 16.5343 15.2176 16.6456 15.2222C16.757 15.2267 16.8617 15.1692 16.9175 15.0728L16.6579 14.9224ZM32.3413 31.9474V32.2474C32.507 32.2474 32.6413 32.113 32.6413 31.9474H32.3413ZM30.3172 31.9474H30.0172C30.0172 32.113 30.1515 32.2474 30.3172 32.2474V31.9474ZM17.4408 31.9474V32.2474C17.6065 32.2474 17.7408 32.113 17.7408 31.9474H17.4408ZM15.4173 31.9474H15.1173C15.1173 32.113 15.2516 32.2474 15.4173 32.2474V31.9474ZM2.54333 31.9474V32.2474C2.70902 32.2474 2.84333 32.113 2.84333 31.9474H2.54333ZM0.520508 31.9474H0.220508C0.220508 32.113 0.354822 32.2474 0.520508 32.2474L0.520508 31.9474ZM0.820508 10.8746C0.820508 10.7089 0.686193 10.5746 0.520508 10.5746C0.354822 10.5746 0.220508 10.7089 0.220508 10.8746H0.820508ZM0.520508 11.1746H2.54333V10.5746H0.520508V11.1746ZM2.24333 10.8746V14.6332H2.84333V10.8746H2.24333ZM2.79813 14.7916C3.46895 13.7123 4.25874 12.6866 5.32644 11.9295C6.38856 11.1764 7.74155 10.6779 9.55979 10.6779V10.0779C7.62127 10.0779 6.14621 10.6127 4.97939 11.4401C3.81815 12.2635 2.97809 13.3654 2.28854 14.4749L2.79813 14.7916ZM9.55979 10.6779C13.0908 10.6779 15.269 12.6958 16.3868 15.0511L16.9289 14.7938C15.7344 12.2771 13.3711 10.0779 9.55979 10.0779V10.6779ZM16.9175 15.0728C18.2451 12.7796 20.4291 10.6779 24.2527 10.6779V10.0779C20.1494 10.0779 17.7956 12.3585 16.3982 14.7721L16.9175 15.0728ZM24.2527 10.6779C26.674 10.6779 28.6117 11.528 29.9465 12.9975C31.2842 14.4701 32.0413 16.5927 32.0413 19.1784H32.6413C32.6413 16.4777 31.8495 14.2 30.3906 12.5941C28.9289 10.9849 26.8224 10.0779 24.2527 10.0779V10.6779ZM32.0413 19.1784V31.9474H32.6413V19.1784H32.0413ZM32.3413 31.6474H30.3172V32.2474H32.3413V31.6474ZM30.6172 31.9474V19.4253H30.0172V31.9474H30.6172ZM30.6172 19.4253C30.6172 17.1062 30.017 15.2317 28.8831 13.9327C27.7446 12.6285 26.0987 11.9401 24.0861 11.9401V12.5401C25.9547 12.5401 27.4244 13.1741 28.4311 14.3273C29.4425 15.4858 30.0172 17.2039 30.0172 19.4253H30.6172ZM24.0861 11.9401C20.3598 11.9401 17.1408 14.8101 17.1408 19.6772H17.7408C17.7408 15.1174 20.7147 12.5401 24.0861 12.5401V11.9401ZM17.1408 19.6772V31.9474H17.7408V19.6772H17.1408ZM17.4408 31.6474H15.4173V32.2474H17.4408V31.6474ZM15.7173 31.9474V19.3017H15.1173V31.9474H15.7173ZM15.7173 19.3017C15.7173 17.0594 15.1043 15.2171 13.9769 13.9309C12.8457 12.6404 11.2225 11.9401 9.26937 11.9401V12.5401C11.0709 12.5401 12.5217 13.181 13.5257 14.3264C14.5337 15.4763 15.1173 17.1647 15.1173 19.3017H15.7173ZM9.26937 11.9401C5.3173 11.9401 2.24333 15.4122 2.24333 19.7996H2.84333C2.84333 15.6776 5.71098 12.5401 9.26937 12.5401V11.9401ZM2.24333 19.7996V31.9474H2.84333V19.7996H2.24333ZM2.54333 31.6474H0.520508V32.2474H2.54333V31.6474ZM0.820508 31.9474V10.8746H0.220508V31.9474H0.820508Z" fill="#004B87" mask="url(#path-1-outside-1_11002_16422)"/>
<mask id="path-3-outside-2_11002_16422" maskUnits="userSpaceOnUse" x="34.8916" y="9.37793" width="20" height="23" fill="black">
<rect fill="white" x="34.8916" y="9.37793" width="20" height="23"/>
<path fill-rule="evenodd" clip-rule="evenodd" d="M35.8916 23.2707V10.3779H37.972V22.8995C37.972 27.235 40.4768 30.0867 44.8503 30.0867C49.0952 30.0867 52.3656 26.9473 52.3656 22.5689V10.3779H54.4469V31.454H52.3656V27.5252C50.9227 30.0041 48.5016 31.9474 44.5527 31.9474C39.0749 31.9474 35.8916 28.3136 35.8916 23.2707Z"/>
</mask>
<path fill-rule="evenodd" clip-rule="evenodd" d="M35.8916 23.2707V10.3779H37.972V22.8995C37.972 27.235 40.4768 30.0867 44.8503 30.0867C49.0952 30.0867 52.3656 26.9473 52.3656 22.5689V10.3779H54.4469V31.454H52.3656V27.5252C50.9227 30.0041 48.5016 31.9474 44.5527 31.9474C39.0749 31.9474 35.8916 28.3136 35.8916 23.2707Z" fill="#004B87"/>
<path d="M35.5916 23.2707C35.5916 23.4364 35.7259 23.5707 35.8916 23.5707C36.0573 23.5707 36.1916 23.4364 36.1916 23.2707H35.5916ZM35.8916 10.3779V10.0779C35.7259 10.0779 35.5916 10.2122 35.5916 10.3779H35.8916ZM37.972 10.3779H38.272C38.272 10.2122 38.1377 10.0779 37.972 10.0779V10.3779ZM52.3656 10.3779V10.0779C52.1999 10.0779 52.0656 10.2122 52.0656 10.3779H52.3656ZM54.4469 10.3779H54.7469C54.7469 10.2122 54.6126 10.0779 54.4469 10.0779V10.3779ZM54.4469 31.454V31.754C54.6126 31.754 54.7469 31.6196 54.7469 31.454H54.4469ZM52.3656 31.454H52.0656C52.0656 31.6196 52.1999 31.754 52.3656 31.754V31.454ZM52.3656 27.5252H52.6656C52.6656 27.3896 52.5746 27.2709 52.4437 27.2355C52.3128 27.2002 52.1745 27.2571 52.1063 27.3743L52.3656 27.5252ZM36.1916 23.2707C36.1916 23.105 36.0573 22.9707 35.8916 22.9707C35.7259 22.9707 35.5916 23.105 35.5916 23.2707H36.1916ZM36.1916 23.2707V10.3779H35.5916V23.2707H36.1916ZM35.8916 10.6779H37.972V10.0779H35.8916V10.6779ZM37.672 10.3779V22.8995H38.272V10.3779H37.672ZM37.672 22.8995C37.672 25.1238 38.3152 27.0006 39.5519 28.3238C40.7913 29.6497 42.5959 30.3867 44.8503 30.3867V29.7867C42.7312 29.7867 41.0967 29.0978 39.9903 27.9141C38.8813 26.7275 38.272 25.0107 38.272 22.8995H37.672ZM44.8503 30.3867C49.2575 30.3867 52.6656 27.1164 52.6656 22.5689H52.0656C52.0656 26.7782 48.9329 29.7867 44.8503 29.7867V30.3867ZM52.6656 22.5689V10.3779H52.0656V22.5689H52.6656ZM52.3656 10.6779H54.4469V10.0779H52.3656V10.6779ZM54.1469 10.3779V31.454H54.7469V10.3779H54.1469ZM54.4469 31.154H52.3656V31.754H54.4469V31.154ZM52.6656 31.454V27.5252H52.0656V31.454H52.6656ZM52.1063 27.3743C50.7089 29.7751 48.3793 31.6474 44.5527 31.6474V32.2474C48.6239 32.2474 51.1365 30.2331 52.6248 27.6761L52.1063 27.3743ZM44.5527 31.6474C41.8826 31.6474 39.7999 30.7636 38.3841 29.2921C36.9667 27.8189 36.1916 25.7291 36.1916 23.2707H35.5916C35.5916 25.8552 36.4082 28.1038 37.9518 29.7081C39.4971 31.3143 41.745 32.2474 44.5527 32.2474V31.6474Z" fill="#004B87" mask="url(#path-3-outside-2_11002_16422)"/>
<mask id="path-5-outside-3_11002_16422" maskUnits="userSpaceOnUse" x="56.9971" y="9.37793" width="34" height="23" fill="black">
<rect fill="white" x="56.9971" y="9.37793" width="34" height="23"/>
<path fill-rule="evenodd" clip-rule="evenodd" d="M57.9971 10.8746H60.0197V14.6332C61.3822 12.4445 63.2801 10.3779 67.0346 10.3779C70.7092 10.3779 72.9779 12.4865 74.1326 14.9224C75.4958 12.5691 77.7657 10.3779 81.7268 10.3779C86.7219 10.3779 89.8178 13.892 89.8178 19.1784V31.9474H87.7928V19.4253C87.7928 14.8848 85.4425 12.2401 81.5633 12.2401C78.0146 12.2401 74.9183 14.9638 74.9183 19.6772V31.9474H72.8957V19.3017C72.8957 14.9224 70.5023 12.2401 66.7454 12.2401C62.9897 12.2401 60.0197 15.5449 60.0197 19.7996V31.9474H57.9971V10.8746Z"/>
</mask>
<path fill-rule="evenodd" clip-rule="evenodd" d="M57.9971 10.8746H60.0197V14.6332C61.3822 12.4445 63.2801 10.3779 67.0346 10.3779C70.7092 10.3779 72.9779 12.4865 74.1326 14.9224C75.4958 12.5691 77.7657 10.3779 81.7268 10.3779C86.7219 10.3779 89.8178 13.892 89.8178 19.1784V31.9474H87.7928V19.4253C87.7928 14.8848 85.4425 12.2401 81.5633 12.2401C78.0146 12.2401 74.9183 14.9638 74.9183 19.6772V31.9474H72.8957V19.3017C72.8957 14.9224 70.5023 12.2401 66.7454 12.2401C62.9897 12.2401 60.0197 15.5449 60.0197 19.7996V31.9474H57.9971V10.8746Z" fill="#004B87"/>
<path d="M57.9971 10.5746C57.8314 10.5746 57.6971 10.7089 57.6971 10.8746C57.6971 11.0403 57.8314 11.1746 57.9971 11.1746V10.5746ZM60.0197 10.8746H60.3197C60.3197 10.7089 60.1854 10.5746 60.0197 10.5746V10.8746ZM60.0197 14.6332H59.7197C59.7197 14.7672 59.8084 14.8849 59.9372 14.9217C60.066 14.9585 60.2036 14.9055 60.2743 14.7918L60.0197 14.6332ZM74.1326 14.9224L73.8615 15.0509C73.9093 15.1516 74.0089 15.2176 74.1203 15.2222C74.2316 15.2268 74.3363 15.1692 74.3922 15.0728L74.1326 14.9224ZM89.8178 31.9474V32.2474C89.9835 32.2474 90.1178 32.113 90.1178 31.9474H89.8178ZM87.7928 31.9474H87.4928C87.4928 32.113 87.6271 32.2474 87.7928 32.2474V31.9474ZM74.9183 31.9474V32.2474C75.084 32.2474 75.2183 32.113 75.2183 31.9474H74.9183ZM72.8957 31.9474H72.5957C72.5957 32.113 72.73 32.2474 72.8957 32.2474V31.9474ZM60.0197 31.9474V32.2474C60.1854 32.2474 60.3197 32.113 60.3197 31.9474H60.0197ZM57.9971 31.9474H57.6971C57.6971 32.113 57.8314 32.2474 57.9971 32.2474V31.9474ZM58.2971 10.8746C58.2971 10.7089 58.1628 10.5746 57.9971 10.5746C57.8314 10.5746 57.6971 10.7089 57.6971 10.8746H58.2971ZM57.9971 11.1746H60.0197V10.5746H57.9971V11.1746ZM59.7197 10.8746V14.6332H60.3197V10.8746H59.7197ZM60.2743 14.7918C60.9463 13.7124 61.7363 12.6866 62.8037 11.9295C63.8655 11.1764 65.2175 10.6779 67.0346 10.6779V10.0779C65.0971 10.0779 63.623 10.6128 62.4566 11.4401C61.2958 12.2635 60.4556 13.3654 59.765 14.4747L60.2743 14.7918ZM67.0346 10.6779C70.5691 10.6779 72.7452 12.6958 73.8615 15.0509L74.4037 14.7939C73.2107 12.2771 70.8494 10.0779 67.0346 10.0779V10.6779ZM74.3922 15.0728C75.7205 12.7796 77.9056 10.6779 81.7268 10.6779V10.0779C77.6258 10.0779 75.271 12.3585 73.873 14.7721L74.3922 15.0728ZM81.7268 10.6779C84.1502 10.6779 86.0886 11.5281 87.4234 12.9975C88.7612 14.4701 89.5178 16.5927 89.5178 19.1784H90.1178C90.1178 16.4777 89.3265 14.2001 87.8675 12.5941C86.4056 10.9848 84.2985 10.0779 81.7268 10.0779V10.6779ZM89.5178 19.1784V31.9474H90.1178V19.1784H89.5178ZM89.8178 31.6474H87.7928V32.2474H89.8178V31.6474ZM88.0928 31.9474V19.4253H87.4928V31.9474H88.0928ZM88.0928 19.4253C88.0928 17.1062 87.4925 15.2317 86.3587 13.9327C85.2204 12.6285 83.5749 11.9401 81.5633 11.9401V12.5401C83.4308 12.5401 84.9001 13.1741 85.9067 14.3273C86.9179 15.4858 87.4928 17.2039 87.4928 19.4253H88.0928ZM81.5633 11.9401C77.8371 11.9401 74.6183 14.8101 74.6183 19.6772H75.2183C75.2183 15.1174 78.192 12.5401 81.5633 12.5401V11.9401ZM74.6183 19.6772V31.9474H75.2183V19.6772H74.6183ZM74.9183 31.6474H72.8957V32.2474H74.9183V31.6474ZM73.1957 31.9474V19.3017H72.5957V31.9474H73.1957ZM73.1957 19.3017C73.1957 17.0594 72.5827 15.217 71.4549 13.9309C70.3233 12.6404 68.6996 11.9401 66.7454 11.9401V12.5401C68.548 12.5401 69.9994 13.181 71.0038 14.3265C72.012 15.4763 72.5957 17.1647 72.5957 19.3017H73.1957ZM66.7454 11.9401C62.7928 11.9401 59.7197 15.4122 59.7197 19.7996H60.3197C60.3197 15.6776 63.1865 12.5401 66.7454 12.5401V11.9401ZM59.7197 19.7996V31.9474H60.3197V19.7996H59.7197ZM60.0197 31.6474H57.9971V32.2474H60.0197V31.6474ZM58.2971 31.9474V10.8746H57.6971V31.9474H58.2971Z" fill="#004B87" mask="url(#path-5-outside-3_11002_16422)"/>
<mask id="path-7-outside-4_11002_16422" maskUnits="userSpaceOnUse" x="92.3701" y="9.37793" width="21" height="23" fill="black">
<rect fill="white" x="92.3701" y="9.37793" width="21" height="23"/>
<path fill-rule="evenodd" clip-rule="evenodd" d="M93.3701 30.7617L108.989 12.2373H93.9637V10.3779H112.088V11.5617L96.4694 30.0845H112.088V31.9474H93.3701V30.7617Z"/>
</mask>
<path fill-rule="evenodd" clip-rule="evenodd" d="M93.3701 30.7617L108.989 12.2373H93.9637V10.3779H112.088V11.5617L96.4694 30.0845H112.088V31.9474H93.3701V30.7617Z" fill="#004B87"/>
<path d="M93.1408 30.5684C93.034 30.695 93.0501 30.8843 93.1767 30.9911C93.3034 31.0979 93.4927 31.0818 93.5995 30.9551L93.1408 30.5684ZM108.989 12.2373L109.219 12.4307C109.294 12.3415 109.311 12.2167 109.261 12.1109C109.212 12.005 109.106 11.9373 108.989 11.9373V12.2373ZM93.9637 12.2373H93.6637C93.6637 12.403 93.798 12.5373 93.9637 12.5373V12.2373ZM93.9637 10.3779V10.0779C93.798 10.0779 93.6637 10.2122 93.6637 10.3779H93.9637ZM112.088 10.3779H112.388C112.388 10.2122 112.254 10.0779 112.088 10.0779V10.3779ZM112.088 11.5617L112.318 11.7551C112.363 11.7009 112.388 11.6324 112.388 11.5617H112.088ZM96.4694 30.0845L96.24 29.8911C96.1648 29.9804 96.1481 30.1051 96.1973 30.211C96.2465 30.3168 96.3526 30.3845 96.4694 30.3845V30.0845ZM112.088 30.0845H112.388C112.388 29.9188 112.254 29.7845 112.088 29.7845V30.0845ZM112.088 31.9474V32.2474C112.254 32.2474 112.388 32.113 112.388 31.9474H112.088ZM93.3701 31.9474H93.0701C93.0701 32.113 93.2044 32.2474 93.3701 32.2474V31.9474ZM93.6701 30.7617C93.6701 30.5961 93.5358 30.4617 93.3701 30.4617C93.2044 30.4617 93.0701 30.5961 93.0701 30.7617H93.6701ZM93.5995 30.9551L109.219 12.4307L108.76 12.0439L93.1408 30.5684L93.5995 30.9551ZM108.989 11.9373H93.9637V12.5373H108.989V11.9373ZM94.2637 12.2373V10.3779H93.6637V12.2373H94.2637ZM93.9637 10.6779H112.088V10.0779H93.9637V10.6779ZM111.788 10.3779V11.5617H112.388V10.3779H111.788ZM111.859 11.3683L96.24 29.8911L96.6987 30.2779L112.318 11.7551L111.859 11.3683ZM96.4694 30.3845H112.088V29.7845H96.4694V30.3845ZM111.788 30.0845V31.9474H112.388V30.0845H111.788ZM112.088 31.6474H93.3701V32.2474H112.088V31.6474ZM93.6701 31.9474V30.7617H93.0701V31.9474H93.6701Z" fill="#004B87" mask="url(#path-7-outside-4_11002_16422)"/>
<mask id="path-9-outside-5_11002_16422" maskUnits="userSpaceOnUse" x="114.641" y="9.37793" width="34" height="23" fill="black">
<rect fill="white" x="114.641" y="9.37793" width="34" height="23"/>
<path fill-rule="evenodd" clip-rule="evenodd" d="M115.641 10.4612H117.934L124.357 29.1892L130.779 10.3779H132.408L138.828 29.1892L145.252 10.4612H147.461L139.662 31.9474H137.913L131.571 13.6798L125.191 31.9474H123.438L115.641 10.4612Z"/>
</mask>
<path fill-rule="evenodd" clip-rule="evenodd" d="M115.641 10.4612H117.934L124.357 29.1892L130.779 10.3779H132.408L138.828 29.1892L145.252 10.4612H147.461L139.662 31.9474H137.913L131.571 13.6798L125.191 31.9474H123.438L115.641 10.4612Z" fill="#004B87"/>
<path d="M115.641 10.1612C115.475 10.1612 115.341 10.2955 115.341 10.4612C115.341 10.6269 115.475 10.7612 115.641 10.7612V10.1612ZM117.934 10.4612L118.217 10.3639C118.176 10.2427 118.062 10.1612 117.934 10.1612V10.4612ZM124.357 29.1892L124.074 29.2866C124.115 29.4079 124.229 29.4893 124.358 29.4892C124.486 29.4891 124.6 29.4075 124.641 29.2862L124.357 29.1892ZM130.779 10.3779V10.0779C130.651 10.0779 130.537 10.1596 130.495 10.281L130.779 10.3779ZM132.408 10.3779L132.692 10.281C132.65 10.1596 132.536 10.0779 132.408 10.0779V10.3779ZM138.828 29.1892L138.544 29.2861C138.585 29.4075 138.699 29.4891 138.828 29.4892C138.956 29.4893 139.07 29.4079 139.112 29.2866L138.828 29.1892ZM145.252 10.4612V10.1612C145.124 10.1612 145.01 10.2427 144.968 10.3639L145.252 10.4612ZM147.461 10.4612L147.743 10.5636C147.777 10.4716 147.763 10.3692 147.707 10.289C147.651 10.2089 147.559 10.1612 147.461 10.1612V10.4612ZM139.662 31.9474V32.2474C139.789 32.2474 139.901 32.1684 139.944 32.0497L139.662 31.9474ZM137.913 31.9474L137.63 32.0457C137.672 32.1664 137.786 32.2474 137.913 32.2474V31.9474ZM131.571 13.6798L131.855 13.5814C131.813 13.4608 131.699 13.3799 131.572 13.3798C131.444 13.3797 131.33 13.4604 131.288 13.5809L131.571 13.6798ZM125.191 31.9474V32.2474C125.319 32.2474 125.432 32.1667 125.474 32.0463L125.191 31.9474ZM123.438 31.9474L123.156 32.0497C123.199 32.1683 123.312 32.2474 123.438 32.2474V31.9474ZM115.923 10.3589C115.866 10.2031 115.694 10.1227 115.538 10.1792C115.383 10.2357 115.302 10.4078 115.359 10.5636L115.923 10.3589ZM115.641 10.7612H117.934V10.1612H115.641V10.7612ZM117.65 10.5586L124.074 29.2866L124.641 29.0919L118.217 10.3639L117.65 10.5586ZM124.641 29.2862L131.063 10.4749L130.495 10.281L124.074 29.0923L124.641 29.2862ZM130.779 10.6779H132.408V10.0779H130.779V10.6779ZM132.124 10.4748L138.544 29.2861L139.112 29.0923L132.692 10.281L132.124 10.4748ZM139.112 29.2866L145.536 10.5586L144.968 10.3639L138.544 29.0919L139.112 29.2866ZM145.252 10.7612H147.461V10.1612H145.252V10.7612ZM147.179 10.3589L139.38 31.845L139.944 32.0497L147.743 10.5636L147.179 10.3589ZM139.662 31.6474H137.913V32.2474H139.662V31.6474ZM138.197 31.849L131.855 13.5814L131.288 13.7782L137.63 32.0457L138.197 31.849ZM131.288 13.5809L124.908 31.8484L125.474 32.0463L131.855 13.7787L131.288 13.5809ZM125.191 31.6474H123.438V32.2474H125.191V31.6474ZM123.72 31.845L115.923 10.3589L115.359 10.5636L123.156 32.0497L123.72 31.845Z" fill="#004B87" mask="url(#path-9-outside-5_11002_16422)"/>
<path d="M151.311 25.9246C154.535 31.7046 162.562 33.2661 168.28 30.8603C174.619 28.198 177.12 21.04 174.714 14.6668C173.506 11.471 170.318 8.4215 167.188 7.13806C165.17 6.312 161.473 6.27073 160.337 8.66667C159.049 11.3851 163.087 13.3726 165.064 13.7866C168.526 14.5122 172.199 13.9578 175.619 13.2855C176.745 13.0643 176.449 12.0214 175.338 12.2404C171.836 12.9257 164.267 14.4152 162.251 10.1485C161.502 8.55425 163.043 7.64565 164.473 7.78517C166.276 7.96258 167.901 9.20475 169.226 10.3653C171.325 12.2035 172.866 14.3207 173.455 17.0957C174.622 22.5837 172.425 28.2873 166.931 30.2089C162.052 31.9174 155.624 29.9252 153.039 25.2341C150.464 20.5682 152.776 14.0764 157.141 11.419C158.195 10.7817 156.638 10.3687 155.983 10.7629C151.167 13.6951 148.41 20.7292 151.311 25.9246Z" fill="#C30045" stroke="#C30045" stroke-width="0.3"/>
<path fill-rule="evenodd" clip-rule="evenodd" d="M166.97 18.8329C166.983 18.3122 166.569 17.8709 166.048 17.88C165.466 17.8889 165.111 18.2129 165.099 18.7954C165.087 19.3827 165.441 19.7108 166.011 19.7534C166.519 19.7898 166.96 19.3432 166.97 18.8329ZM160.418 19.7554C160.937 19.7614 161.374 19.3419 161.357 18.8187C161.337 18.2338 161.015 17.8891 160.434 17.88C159.844 17.8739 159.529 18.2338 159.488 18.8026C159.45 19.3053 159.91 19.7503 160.418 19.7554Z" fill="#C30045"/>
<path d="M166.97 18.8329L166.82 18.8293L166.82 18.8299L166.97 18.8329ZM166.048 17.88L166.05 18.03L166.05 18.03L166.048 17.88ZM165.099 18.7954L165.249 18.7985L165.249 18.7985L165.099 18.7954ZM166.011 19.7534L166 19.903L166.001 19.903L166.011 19.7534ZM161.357 18.8187L161.507 18.8138L161.507 18.8136L161.357 18.8187ZM160.434 17.88L160.436 17.73L160.435 17.73L160.434 17.88ZM159.488 18.8026L159.637 18.814L159.637 18.8135L159.488 18.8026ZM167.12 18.8365C167.135 18.2359 166.657 17.7193 166.045 17.73L166.05 18.03C166.481 18.0224 166.831 18.3886 166.82 18.8293L167.12 18.8365ZM166.045 17.73C165.728 17.7349 165.454 17.8263 165.256 18.0139C165.058 18.2024 164.956 18.4707 164.949 18.7923L165.249 18.7985C165.254 18.5376 165.335 18.3527 165.463 18.2313C165.592 18.109 165.786 18.034 166.05 18.03L166.045 17.73ZM164.949 18.7923C164.942 19.1179 165.038 19.3888 165.23 19.5839C165.421 19.7774 165.69 19.8798 166 19.903L166.023 19.6038C165.763 19.5844 165.57 19.5014 165.444 19.3734C165.319 19.247 165.243 19.0603 165.249 18.7985L164.949 18.7923ZM166.001 19.903C166.603 19.9462 167.108 19.4221 167.12 18.8359L166.82 18.8299C166.811 19.2644 166.434 19.6333 166.022 19.6038L166.001 19.903ZM160.416 19.9054C161.016 19.9124 161.527 19.4275 161.507 18.8138L161.207 18.8236C161.221 19.2564 160.858 19.6105 160.42 19.6054L160.416 19.9054ZM161.507 18.8136C161.496 18.4955 161.402 18.2235 161.213 18.029C161.024 17.8335 160.756 17.735 160.436 17.73L160.431 18.0299C160.692 18.0341 160.876 18.1125 160.998 18.2379C161.121 18.3643 161.198 18.557 161.207 18.8238L161.507 18.8136ZM160.435 17.73C160.108 17.7266 159.84 17.8256 159.648 18.0205C159.458 18.2134 159.36 18.4834 159.338 18.7918L159.637 18.8135C159.656 18.5531 159.736 18.3587 159.862 18.2309C159.986 18.1052 160.17 18.0273 160.432 18.0299L160.435 17.73ZM159.338 18.7913C159.293 19.392 159.834 19.8995 160.416 19.9054L160.42 19.6054C159.986 19.601 159.607 19.2185 159.637 18.814L159.338 18.7913Z" fill="#C30045"/>
<path fill-rule="evenodd" clip-rule="evenodd" d="M163.725 27.258C163.415 27.258 163.201 27.2344 163.107 27.2232C158.005 27.1954 155.009 22.0111 154.884 21.7882C154.725 21.5054 154.816 21.1426 155.089 20.9768C155.358 20.8087 155.715 20.9037 155.875 21.1866C155.901 21.2351 158.686 26.0363 163.147 26.0363L163.234 26.0432C163.415 26.073 167.72 26.6573 170.567 21.0148C170.716 20.7219 171.061 20.6095 171.345 20.7602C171.625 20.9142 171.733 21.2734 171.586 21.5657C168.995 26.7015 165.238 27.258 163.725 27.258Z" fill="#C30045"/>
<path d="M163.725 27.258C163.415 27.258 163.201 27.2344 163.107 27.2232C158.005 27.1954 155.009 22.0111 154.884 21.7882C154.725 21.5054 154.816 21.1426 155.089 20.9768C155.358 20.8087 155.715 20.9037 155.875 21.1866C155.901 21.2351 158.686 26.0363 163.147 26.0363L163.234 26.0432C163.415 26.073 167.72 26.6573 170.567 21.0148C170.716 20.7219 171.061 20.6095 171.345 20.7602C171.625 20.9142 171.733 21.2734 171.586 21.5657C168.995 26.7015 165.238 27.258 163.725 27.258" stroke="#C30045" stroke-width="0.3"/>
<mask id="path-16-outside-6_11002_16422" maskUnits="userSpaceOnUse" x="178.882" y="9.37793" width="13" height="23" fill="black">
<rect fill="white" x="178.882" y="9.37793" width="13" height="23"/>
<path fill-rule="evenodd" clip-rule="evenodd" d="M179.882 10.7179H181.883V16.7535C183.516 12.9657 186.986 10.2175 191.113 10.3852V12.6321H190.91C186.088 12.6321 181.883 16.3382 181.883 23.2473V31.9474H179.882V10.7179Z"/>
</mask>
<path fill-rule="evenodd" clip-rule="evenodd" d="M179.882 10.7179H181.883V16.7535C183.516 12.9657 186.986 10.2175 191.113 10.3852V12.6321H190.91C186.088 12.6321 181.883 16.3382 181.883 23.2473V31.9474H179.882V10.7179Z" fill="#004B87"/>
<path d="M179.882 10.4179C179.716 10.4179 179.582 10.5522 179.582 10.7179C179.582 10.8836 179.716 11.0179 179.882 11.0179V10.4179ZM181.883 10.7179H182.183C182.183 10.5522 182.049 10.4179 181.883 10.4179V10.7179ZM181.883 16.7535H181.583C181.583 16.8959 181.683 17.0186 181.823 17.0473C181.962 17.0761 182.102 17.003 182.159 16.8723L181.883 16.7535ZM191.113 10.3852H191.413C191.413 10.2243 191.286 10.092 191.125 10.0855L191.113 10.3852ZM191.113 12.6321V12.9321C191.278 12.9321 191.413 12.7978 191.413 12.6321H191.113ZM181.883 31.9474V32.2474C182.049 32.2474 182.183 32.113 182.183 31.9474H181.883ZM179.882 31.9474H179.582C179.582 32.113 179.716 32.2474 179.882 32.2474V31.9474ZM180.182 10.7179C180.182 10.5522 180.048 10.4179 179.882 10.4179C179.716 10.4179 179.582 10.5522 179.582 10.7179H180.182ZM179.882 11.0179H181.883V10.4179H179.882V11.0179ZM181.583 10.7179V16.7535H182.183V10.7179H181.583ZM182.159 16.8723C183.754 13.1702 187.126 10.5234 191.101 10.685L191.125 10.0855C186.846 9.91155 183.277 12.7613 181.608 16.6348L182.159 16.8723ZM190.813 10.3852V12.6321H191.413V10.3852H190.813ZM191.113 12.3321H190.91V12.9321H191.113V12.3321ZM190.91 12.3321C188.42 12.3321 186.082 13.2902 184.368 15.1452C182.654 17.0002 181.583 19.7311 181.583 23.2473H182.183C182.183 19.8544 183.215 17.2778 184.809 15.5524C186.403 13.8271 188.578 12.9321 190.91 12.9321V12.3321ZM181.583 23.2473V31.9474H182.183V23.2473H181.583ZM181.883 31.6474H179.882V32.2474H181.883V31.6474ZM180.182 31.9474V10.7179H179.582V31.9474H180.182Z" fill="#004B87" mask="url(#path-16-outside-6_11002_16422)"/>
<path d="M194.514 31.9474C194.514 32.0303 194.581 32.0974 194.664 32.0974H196.536C196.619 32.0974 196.686 32.0303 196.686 31.9474V1C196.686 0.917157 196.619 0.85 196.536 0.85H194.664C194.581 0.85 194.514 0.917157 194.514 1V31.9474Z" fill="#004B87" stroke="#004B87" stroke-width="0.3" stroke-linecap="round" stroke-linejoin="round"/>
<mask id="path-19-outside-7_11002_16422" maskUnits="userSpaceOnUse" x="199.088" y="0" width="23" height="33" fill="black">
<rect fill="white" x="199.088" width="23" height="33"/>
<path fill-rule="evenodd" clip-rule="evenodd" d="M219.742 20.7342V20.6495C219.742 15.0646 215.295 11.3154 210.676 11.3154C205.838 11.3154 201.96 14.7674 201.96 20.6082V20.6931C201.96 26.4053 206.013 30.0715 210.676 30.0715C215.295 30.0715 219.742 26.2803 219.742 20.7342ZM200.088 20.8937V20.8106C200.088 13.8877 205.394 9.67317 210.617 9.67317C214.947 9.67317 217.749 12.093 219.532 14.7639V1H221.614V31.4494H219.532V26.6895C217.667 29.4859 214.904 31.9474 210.617 31.9474C205.394 31.9474 200.088 27.8163 200.088 20.8937Z"/>
</mask>
<path fill-rule="evenodd" clip-rule="evenodd" d="M219.742 20.7342V20.6495C219.742 15.0646 215.295 11.3154 210.676 11.3154C205.838 11.3154 201.96 14.7674 201.96 20.6082V20.6931C201.96 26.4053 206.013 30.0715 210.676 30.0715C215.295 30.0715 219.742 26.2803 219.742 20.7342ZM200.088 20.8937V20.8106C200.088 13.8877 205.394 9.67317 210.617 9.67317C214.947 9.67317 217.749 12.093 219.532 14.7639V1H221.614V31.4494H219.532V26.6895C217.667 29.4859 214.904 31.9474 210.617 31.9474C205.394 31.9474 200.088 27.8163 200.088 20.8937Z" fill="#004B87"/>
<path d="M219.532 14.7639L219.283 14.9305C219.356 15.0404 219.493 15.0894 219.619 15.051C219.746 15.0127 219.832 14.8961 219.832 14.7639H219.532ZM219.532 1V0.7C219.367 0.7 219.232 0.834315 219.232 1H219.532ZM221.614 1H221.914C221.914 0.834315 221.779 0.7 221.614 0.7V1ZM221.614 31.4494V31.7494C221.779 31.7494 221.914 31.6151 221.914 31.4494H221.614ZM219.532 31.4494H219.232C219.232 31.6151 219.367 31.7494 219.532 31.7494V31.4494ZM219.532 26.6895H219.832C219.832 26.5574 219.746 26.4407 219.619 26.4024C219.493 26.3641 219.356 26.4131 219.283 26.5231L219.532 26.6895ZM220.042 20.7342V20.6495H219.442V20.7342H220.042ZM220.042 20.6495C220.042 14.8898 215.451 11.0154 210.676 11.0154V11.6154C215.138 11.6154 219.442 15.2394 219.442 20.6495H220.042ZM210.676 11.0154C208.184 11.0154 205.926 11.9053 204.29 13.5607C202.654 15.2169 201.66 17.6193 201.66 20.6082H202.26C202.26 17.7563 203.205 15.5123 204.717 13.9824C206.23 12.4516 208.329 11.6154 210.676 11.6154V11.0154ZM201.66 20.6082V20.6931H202.26V20.6082H201.66ZM201.66 20.6931C201.66 26.5649 205.841 30.3715 210.676 30.3715V29.7715C206.184 29.7715 202.26 26.2457 202.26 20.6931H201.66ZM210.676 30.3715C215.452 30.3715 220.042 26.4541 220.042 20.7342H219.442C219.442 26.1065 215.137 29.7715 210.676 29.7715V30.3715ZM200.388 20.8937V20.8106H199.788V20.8937H200.388ZM200.388 20.8106C200.388 14.0621 205.55 9.97317 210.617 9.97317V9.37317C205.237 9.37317 199.788 13.7133 199.788 20.8106H200.388ZM210.617 9.97317C214.813 9.97317 217.533 12.3109 219.283 14.9305L219.782 14.5973C217.964 11.875 215.08 9.37317 210.617 9.37317V9.97317ZM219.832 14.7639V1H219.232V14.7639H219.832ZM219.532 1.3H221.614V0.7H219.532V1.3ZM221.314 1V31.4494H221.914V1H221.314ZM221.614 31.1494H219.532V31.7494H221.614V31.1494ZM219.832 31.4494V26.6895H219.232V31.4494H219.832ZM219.283 26.5231C217.447 29.2741 214.766 31.6474 210.617 31.6474V32.2474C215.043 32.2474 217.886 29.6978 219.782 26.856L219.283 26.5231ZM210.617 31.6474C205.547 31.6474 200.388 27.6389 200.388 20.8937H199.788C199.788 27.9937 205.24 32.2474 210.617 32.2474V31.6474Z" fill="#004B87" mask="url(#path-19-outside-7_11002_16422)"/>
<path d="M6.616 42.5733V41.4631H5.66781L5.95546 39.7871H4.81551L4.53851 41.4631H2.79129L3.07894 39.7871H1.93899L1.65134 41.4631H0.39419V42.5733H1.45957L1.15061 44.4308H0V45.5411H0.95884L0.660534 47.2598H1.80049L2.08814 45.5411H3.83536L3.53705 47.2598H4.67701L4.97531 45.5411H6.23246V44.4308H5.16708L5.47604 42.5733H6.616ZM4.34674 42.5733L4.02713 44.4308H2.27991L2.59952 42.5733H4.34674Z" fill="#C30045"/>
<path d="M6.87732 40.3742L7.15432 41.4417L8.49669 41.0681V47.2598H9.79645V39.7337H8.88023L6.87732 40.3742Z" fill="#C30045"/>
<path d="M18.6173 42.4986C18.4682 42.1997 18.2515 41.9613 17.9674 41.7834C17.6904 41.5983 17.3495 41.5058 16.9447 41.5058C16.7316 41.5058 16.5363 41.5343 16.3587 41.5912C16.1882 41.641 16.032 41.7122 15.8899 41.8047C15.755 41.8972 15.6343 42.0004 15.5277 42.1143C15.4212 42.2282 15.3217 42.3491 15.2294 42.4772V41.6232H13.9403V47.2598H15.2294V44.0892C15.2294 43.648 15.3395 43.3028 15.5597 43.0537C15.7799 42.8046 16.0711 42.6801 16.4333 42.6801C16.7955 42.6801 17.0761 42.7975 17.2749 43.0324C17.4738 43.2672 17.5732 43.6053 17.5732 44.0465V47.2598H18.8623V44.0786C18.8623 43.6231 18.9724 43.2779 19.1926 43.043C19.4199 42.8011 19.7111 42.6801 20.0662 42.6801C20.4285 42.6801 20.709 42.7975 20.9079 43.0324C21.1067 43.2672 21.2062 43.6088 21.2062 44.0572V47.2598H22.4953V43.6622C22.4953 42.9719 22.3213 42.4417 21.9732 42.0716C21.6252 41.6944 21.1423 41.5058 20.5243 41.5058C20.0982 41.5058 19.7289 41.5983 19.4163 41.7834C19.1109 41.9613 18.8446 42.1997 18.6173 42.4986Z" fill="#C30045"/>
<path d="M29.3087 44.4415C29.3087 44.0359 29.2341 43.6551 29.085 43.2993C28.9358 42.9434 28.7263 42.6338 28.4564 42.3705C28.1936 42.1001 27.8775 41.8901 27.5082 41.7406C27.146 41.5841 26.7482 41.5058 26.315 41.5058C25.8817 41.5058 25.4804 41.5841 25.1111 41.7406C24.7489 41.8972 24.4328 42.1107 24.1629 42.3812C23.9001 42.6445 23.6906 42.9576 23.5343 43.3206C23.3852 43.6764 23.3106 44.0572 23.3106 44.4629C23.3106 44.8685 23.3852 45.2493 23.5343 45.6051C23.6835 45.9539 23.8895 46.2634 24.1523 46.5339C24.4221 46.7972 24.7382 47.0072 25.1004 47.1637C25.4698 47.3132 25.8675 47.3879 26.2937 47.3879C26.7269 47.3879 27.1282 47.3096 27.4975 47.1531C27.8669 46.9965 28.1829 46.7865 28.4457 46.5232C28.7156 46.2528 28.9251 45.9396 29.0743 45.5838C29.2306 45.2279 29.3087 44.8472 29.3087 44.4415ZM28.0196 44.4629C28.0196 44.712 27.9805 44.9468 27.9024 45.1674C27.8243 45.3809 27.7106 45.5695 27.5615 45.7332C27.4123 45.8969 27.2312 46.0286 27.0181 46.1282C26.8121 46.2207 26.5778 46.267 26.315 46.267C26.0664 46.267 25.8355 46.2207 25.6225 46.1282C25.4165 46.0286 25.2354 45.8969 25.0791 45.7332C24.93 45.5695 24.8128 45.3774 24.7276 45.1568C24.6423 44.929 24.5997 44.6906 24.5997 44.4415C24.5997 44.1924 24.6388 43.9611 24.7169 43.7476C24.795 43.527 24.9087 43.3348 25.0578 43.1711C25.207 43.0075 25.3845 42.8794 25.5905 42.7868C25.8036 42.6872 26.038 42.6374 26.2937 42.6374C26.5494 42.6374 26.7802 42.6872 26.9862 42.7868C27.1992 42.8794 27.3803 43.011 27.5295 43.1818C27.6858 43.3455 27.8065 43.5377 27.8917 43.7583C27.977 43.9789 28.0196 44.2138 28.0196 44.4629Z" fill="#C30045"/>
<path d="M31.7331 42.7335H33.2459V41.6232H31.7331V40.0753H30.4439V41.6232H29.7301V42.7335H30.4439V45.7012C30.4439 46.0144 30.483 46.2777 30.5611 46.4912C30.6393 46.6976 30.7494 46.8648 30.8914 46.9929C31.0406 47.121 31.2146 47.2136 31.4134 47.2705C31.6123 47.3274 31.8289 47.3559 32.0633 47.3559C32.3048 47.3559 32.5179 47.331 32.7025 47.2812C32.8872 47.2313 33.0612 47.1602 33.2246 47.0677V46.0108C32.9689 46.1389 32.7025 46.203 32.4255 46.203C32.2054 46.203 32.0349 46.1496 31.9142 46.0428C31.7934 45.929 31.7331 45.7475 31.7331 45.4984V42.7335Z" fill="#C30045"/>
<path d="M35.3925 44.0786C35.3925 43.6373 35.5097 43.2957 35.7441 43.0537C35.9785 42.8046 36.2839 42.6801 36.6603 42.6801C37.0438 42.6801 37.3386 42.8011 37.5446 43.043C37.7577 43.2779 37.8642 43.616 37.8642 44.0572V47.2598H39.1533V43.6729C39.1533 43.011 38.9793 42.4844 38.6313 42.0929C38.2832 41.7015 37.7896 41.5058 37.1504 41.5058C36.9302 41.5058 36.7313 41.5343 36.5538 41.5912C36.3833 41.641 36.2235 41.7122 36.0744 41.8047C35.9323 41.8972 35.8045 42.004 35.6908 42.125C35.5843 42.2388 35.4848 42.3634 35.3925 42.4986V39.4668H34.1034V47.2598H35.3925V44.0786Z" fill="#C30045"/>
<path d="M41.2462 44.9006H45.3799C45.387 44.8365 45.3906 44.776 45.3906 44.7191C45.3977 44.6621 45.4012 44.6052 45.4012 44.5483C45.4012 44.1426 45.3444 43.7547 45.2308 43.3847C45.1171 43.0146 44.9467 42.6908 44.7194 42.4132C44.4992 42.1356 44.2186 41.915 43.8777 41.7513C43.5439 41.5876 43.1533 41.5058 42.7058 41.5058C42.301 41.5058 41.9316 41.5841 41.5978 41.7406C41.264 41.8972 40.9728 42.1107 40.7242 42.3812C40.4827 42.6445 40.2945 42.9541 40.1596 43.3099C40.0246 43.6658 39.9571 44.0465 39.9571 44.4522C39.9571 44.8934 40.0317 45.2955 40.1809 45.6585C40.33 46.0144 40.5324 46.3204 40.7881 46.5766C41.0509 46.8328 41.3563 47.0321 41.7044 47.1744C42.0595 47.3167 42.4395 47.3879 42.8443 47.3879C43.3628 47.3879 43.8067 47.2918 44.176 47.0997C44.5525 46.9075 44.8756 46.6513 45.1455 46.3311L44.3891 45.6585C44.1618 45.8791 43.931 46.0464 43.6966 46.1603C43.4622 46.2741 43.1852 46.3311 42.8656 46.3311C42.4466 46.3311 42.0914 46.2101 41.8002 45.9681C41.509 45.719 41.3244 45.3632 41.2462 44.9006ZM41.2356 44.0465C41.2924 43.6053 41.4487 43.2494 41.7044 42.979C41.9671 42.7014 42.2974 42.5627 42.6952 42.5627C42.9082 42.5627 43.0964 42.6018 43.2598 42.6801C43.4303 42.7584 43.5759 42.8651 43.6966 43.0003C43.8174 43.1284 43.9132 43.285 43.9843 43.4701C44.0553 43.648 44.1015 43.8401 44.1228 44.0465H41.2356Z" fill="#C30045"/>
<path d="M47.541 45.1141C47.541 44.744 47.5872 44.4202 47.6795 44.1426C47.7718 43.8579 47.9032 43.6231 48.0737 43.438C48.2442 43.253 48.4466 43.1142 48.681 43.0217C48.9153 42.9292 49.1746 42.8829 49.4587 42.8829H49.5333V41.5165C49.0361 41.4951 48.6241 41.6125 48.2974 41.8688C47.9707 42.125 47.7186 42.4666 47.541 42.8936V41.6232H46.2519V47.2598H47.541V45.1141Z" fill="#C30045"/>
<path d="M48.8043 48.2633L48.9428 48.8077C49.4826 48.765 49.891 48.6085 50.168 48.338C50.445 48.0676 50.5835 47.6335 50.5835 47.0356V45.7973H49.1665V47.2598H49.7099C49.7596 47.8007 49.4577 48.1352 48.8043 48.2633Z" fill="#C30045"/>
<path d="M60.2361 44.4415C60.2361 43.9718 60.1615 43.5555 60.0123 43.1925C59.8632 42.8295 59.6643 42.5235 59.4157 42.2744C59.1742 42.0182 58.8972 41.8261 58.5847 41.6979C58.2722 41.5698 57.9491 41.5058 57.6152 41.5058C57.1607 41.5058 56.7807 41.609 56.4753 41.8154C56.1699 42.0147 55.9142 42.2637 55.7082 42.5627V39.4668H54.4191V47.2598H55.7082V46.3844C55.9071 46.6478 56.1592 46.8791 56.4646 47.0783C56.77 47.2776 57.1536 47.3772 57.6152 47.3772C57.9491 47.3772 58.2722 47.3132 58.5847 47.1851C58.9043 47.057 59.1849 46.8684 59.4264 46.6193C59.675 46.3631 59.8703 46.0535 60.0123 45.6905C60.1615 45.3276 60.2361 44.9112 60.2361 44.4415ZM58.9257 44.4415C58.9257 44.7191 58.883 44.9717 58.7978 45.1995C58.7126 45.4201 58.5954 45.6087 58.4462 45.7653C58.3042 45.9218 58.1337 46.0428 57.9349 46.1282C57.7431 46.2136 57.5371 46.2563 57.3169 46.2563C57.0968 46.2563 56.8872 46.2136 56.6884 46.1282C56.4895 46.0428 56.3155 45.9218 56.1663 45.7653C56.0172 45.6016 55.8964 45.4094 55.8041 45.1888C55.7189 44.9682 55.6763 44.7191 55.6763 44.4415C55.6763 44.164 55.7189 43.9149 55.8041 43.6942C55.8964 43.4736 56.0172 43.285 56.1663 43.1284C56.3155 42.9648 56.4895 42.8402 56.6884 42.7548C56.8872 42.6694 57.0968 42.6267 57.3169 42.6267C57.5371 42.6267 57.7431 42.6694 57.9349 42.7548C58.1337 42.8402 58.3042 42.9612 58.4462 43.1178C58.5954 43.2743 58.7126 43.4665 58.7978 43.6942C58.883 43.9149 58.9257 44.164 58.9257 44.4415Z" fill="#C30045"/>
<path d="M65.832 47.2598V43.9184C65.832 43.164 65.6296 42.5804 65.2248 42.1677C64.8199 41.7478 64.1984 41.5378 63.3603 41.5378C62.8987 41.5378 62.5045 41.5805 62.1778 41.6659C61.8511 41.7513 61.5314 41.8652 61.2189 42.0075L61.5705 43.043C61.8262 42.9363 62.0783 42.8509 62.3269 42.7868C62.5755 42.7228 62.8596 42.6908 63.1792 42.6908C63.6267 42.6908 63.9676 42.794 64.202 43.0003C64.4435 43.2067 64.5642 43.5056 64.5642 43.8971V44.0359C64.344 43.9647 64.1132 43.9077 63.8717 43.865C63.6373 43.8223 63.3497 43.801 63.0088 43.801C62.682 43.801 62.3766 43.8401 62.0925 43.9184C61.8155 43.9896 61.5741 44.0999 61.3681 44.2494C61.1692 44.3988 61.013 44.5874 60.8993 44.8152C60.7857 45.0429 60.7289 45.3098 60.7289 45.6158V45.6372C60.7289 45.9218 60.7821 46.1745 60.8887 46.3951C61.0023 46.6086 61.1479 46.7901 61.3255 46.9396C61.5101 47.0819 61.7232 47.1886 61.9647 47.2598C62.2062 47.3381 62.4619 47.3772 62.7318 47.3772C63.1579 47.3772 63.5201 47.299 63.8185 47.1424C64.1168 46.9858 64.3618 46.7937 64.5536 46.5659V47.2598H65.832ZM64.5855 45.2208C64.5855 45.3987 64.5465 45.5624 64.4683 45.7119C64.3973 45.8542 64.2943 45.9788 64.1594 46.0855C64.0244 46.1852 63.8646 46.2634 63.68 46.3204C63.5024 46.3773 63.3071 46.4058 63.094 46.4058C62.7886 46.4058 62.5293 46.3346 62.3163 46.1923C62.1103 46.0499 62.0073 45.8435 62.0073 45.5731V45.5518C62.0073 45.26 62.121 45.0358 62.3482 44.8792C62.5755 44.7226 62.8916 44.6443 63.2964 44.6443C63.545 44.6443 63.7794 44.6657 63.9996 44.7084C64.2269 44.7511 64.4222 44.8045 64.5855 44.8685V45.2208Z" fill="#C30045"/>
<path d="M72.7383 44.4415C72.7383 43.9718 72.6637 43.5555 72.5146 43.1925C72.3654 42.8295 72.1665 42.5235 71.918 42.2744C71.6765 42.0182 71.3995 41.8261 71.087 41.6979C70.7745 41.5698 70.4513 41.5058 70.1175 41.5058C69.6629 41.5058 69.2829 41.609 68.9775 41.8154C68.6721 42.0147 68.4164 42.2637 68.2104 42.5627V39.4668H66.9213V47.2598H68.2104V46.3844C68.4093 46.6478 68.6615 46.8791 68.9669 47.0783C69.2723 47.2776 69.6558 47.3772 70.1175 47.3772C70.4513 47.3772 70.7745 47.3132 71.087 47.1851C71.4066 47.057 71.6871 46.8684 71.9286 46.6193C72.1772 46.3631 72.3725 46.0535 72.5146 45.6905C72.6637 45.3276 72.7383 44.9112 72.7383 44.4415ZM71.4279 44.4415C71.4279 44.7191 71.3853 44.9717 71.3 45.1995C71.2148 45.4201 71.0976 45.6087 70.9485 45.7653C70.8064 45.9218 70.636 46.0428 70.4371 46.1282C70.2453 46.2136 70.0393 46.2563 69.8192 46.2563C69.599 46.2563 69.3895 46.2136 69.1906 46.1282C68.9917 46.0428 68.8177 45.9218 68.6686 45.7653C68.5194 45.6016 68.3987 45.4094 68.3063 45.1888C68.2211 44.9682 68.1785 44.7191 68.1785 44.4415C68.1785 44.164 68.2211 43.9149 68.3063 43.6942C68.3987 43.4736 68.5194 43.285 68.6686 43.1284C68.8177 42.9648 68.9917 42.8402 69.1906 42.7548C69.3895 42.6694 69.599 42.6267 69.8192 42.6267C70.0393 42.6267 70.2453 42.6694 70.4371 42.7548C70.636 42.8402 70.8064 42.9612 70.9485 43.1178C71.0976 43.2743 71.2148 43.4665 71.3 43.6942C71.3853 43.9149 71.4279 44.164 71.4279 44.4415Z" fill="#C30045"/>
<path d="M78.5858 41.6232H77.2434L75.7838 45.808L74.1858 41.6232H72.8114L75.1553 47.2598C75.0487 47.5089 74.9351 47.6797 74.8143 47.7722C74.6936 47.8647 74.5409 47.911 74.3562 47.911C74.2213 47.911 74.0899 47.8897 73.962 47.847C73.8413 47.8114 73.7206 47.7616 73.5998 47.6975L73.163 48.6583C73.3619 48.765 73.5643 48.8469 73.7703 48.9038C73.9833 48.9679 74.2248 48.9999 74.4947 48.9999C74.722 48.9999 74.9244 48.9714 75.102 48.9145C75.2796 48.8576 75.4429 48.765 75.5921 48.6369C75.7412 48.5159 75.8762 48.3558 75.9969 48.1565C76.1177 47.9573 76.2348 47.7117 76.3485 47.4199L78.5858 41.6232Z" fill="#C30045"/>
<path d="M88.2826 46.7154L87.1107 45.5197C87.3024 45.2564 87.48 44.9824 87.6434 44.6977C87.8138 44.4059 87.9736 44.1106 88.1228 43.8117L87.132 43.2886C87.0112 43.5519 86.8834 43.8046 86.7484 44.0465C86.6135 44.2885 86.475 44.5162 86.3329 44.7298L85.0545 43.4274C85.5517 43.2423 85.9494 42.9968 86.2477 42.6908C86.546 42.3776 86.6952 41.9719 86.6952 41.4738C86.6952 41.2176 86.6454 40.9791 86.546 40.7585C86.4537 40.5379 86.3187 40.3457 86.1412 40.182C85.9707 40.0184 85.7647 39.8903 85.5233 39.7977C85.2818 39.7052 85.0119 39.659 84.7136 39.659C84.3797 39.659 84.0814 39.7123 83.8186 39.8191C83.5558 39.9187 83.3321 40.0539 83.1475 40.2247C82.9628 40.3956 82.8207 40.5948 82.7213 40.8226C82.6219 41.0503 82.5722 41.2923 82.5722 41.5485C82.5722 41.8261 82.6219 42.0894 82.7213 42.3385C82.8207 42.5804 82.977 42.8402 83.1901 43.1178C82.6787 43.3384 82.2845 43.6231 82.0075 43.9718C81.7376 44.3134 81.6027 44.7298 81.6027 45.2208C81.6027 45.5482 81.663 45.8435 81.7838 46.1069C81.9116 46.3702 82.0821 46.5979 82.2952 46.7901C82.5153 46.9751 82.771 47.1175 83.0622 47.2171C83.3605 47.3167 83.6837 47.3666 84.0317 47.3666C84.4863 47.3666 84.9018 47.2812 85.2782 47.1104C85.6546 46.9324 86.0027 46.694 86.3223 46.3951L87.3131 47.4093L88.2826 46.7154ZM85.5339 41.5485C85.5339 41.8261 85.4345 42.0574 85.2356 42.2424C85.0367 42.4203 84.7455 42.5804 84.362 42.7228C84.156 42.495 84.0104 42.2993 83.9252 42.1356C83.84 41.9719 83.7973 41.794 83.7973 41.6019C83.7973 41.3314 83.8755 41.1144 84.0317 40.9507C84.1951 40.7799 84.4117 40.6945 84.6816 40.6945C84.9302 40.6945 85.1326 40.7727 85.2889 40.9293C85.4522 41.0788 85.5339 41.2852 85.5339 41.5485ZM85.5765 45.6265C85.3634 45.8329 85.1397 45.993 84.9053 46.1069C84.671 46.2207 84.4259 46.2777 84.1702 46.2777C83.808 46.2777 83.5097 46.1745 83.2753 45.9681C83.0409 45.7617 82.9237 45.4984 82.9237 45.1781C82.9237 44.929 83.0019 44.6977 83.1581 44.4842C83.3144 44.2636 83.5665 44.0786 83.9145 43.9291L85.5765 45.6265Z" fill="#C30045"/>
<path d="M96.6219 46.3311L95.8442 45.5624C95.6382 45.7688 95.4181 45.9396 95.1837 46.0748C94.9564 46.203 94.69 46.267 94.3846 46.267C94.1361 46.267 93.9088 46.2207 93.7028 46.1282C93.4968 46.0286 93.3193 45.8969 93.1701 45.7332C93.021 45.5695 92.9038 45.3774 92.8185 45.1568C92.7404 44.9361 92.7013 44.6977 92.7013 44.4415C92.7013 44.1924 92.7404 43.9611 92.8185 43.7476C92.9038 43.527 93.0174 43.3348 93.1595 43.1711C93.3015 43.0075 93.472 42.8794 93.6708 42.7868C93.8697 42.6872 94.0863 42.6374 94.3207 42.6374C94.6474 42.6374 94.9209 42.705 95.1411 42.8402C95.3683 42.9683 95.5814 43.1356 95.7803 43.342L96.5793 42.4772C96.3165 42.1855 96.0076 41.9506 95.6524 41.7727C95.3044 41.5948 94.8641 41.5058 94.3314 41.5058C93.9123 41.5058 93.5217 41.5841 93.1595 41.7406C92.8043 41.8972 92.4954 42.1107 92.2326 42.3812C91.9769 42.6516 91.7745 42.9648 91.6253 43.3206C91.4833 43.6764 91.4122 44.0572 91.4122 44.4629C91.4122 44.8685 91.4833 45.2493 91.6253 45.6051C91.7745 45.9539 91.9769 46.2634 92.2326 46.5339C92.4954 46.7972 92.8043 47.0072 93.1595 47.1637C93.5146 47.3132 93.9017 47.3879 94.3207 47.3879C94.8676 47.3879 95.3186 47.2918 95.6737 47.0997C96.0289 46.9004 96.3449 46.6442 96.6219 46.3311Z" fill="#C30045"/>
<path d="M98.6528 44.0786C98.6528 43.6373 98.77 43.2957 99.0044 43.0537C99.2387 42.8046 99.5441 42.6801 99.9206 42.6801C100.304 42.6801 100.599 42.8011 100.805 43.043C101.018 43.2779 101.124 43.616 101.124 44.0572V47.2598H102.414V43.6729C102.414 43.011 102.24 42.4844 101.892 42.0929C101.544 41.7015 101.05 41.5058 100.411 41.5058C100.19 41.5058 99.9916 41.5343 99.814 41.5912C99.6436 41.641 99.4838 41.7122 99.3346 41.8047C99.1926 41.8972 99.0647 42.004 98.9511 42.125C98.8445 42.2388 98.7451 42.3634 98.6528 42.4986V39.4668H97.3637V47.2598H98.6528V44.0786Z" fill="#C30045"/>
<path d="M104.933 40.7585V39.5308H103.548V40.7585H104.933ZM104.89 47.2598V41.6232H103.601V47.2598H104.89Z" fill="#C30045"/>
<path d="M107.495 47.2598V39.4668H106.205V47.2598H107.495Z" fill="#C30045"/>
<path d="M114.265 47.2598V39.4668H112.976V42.4986C112.77 42.2353 112.514 42.004 112.208 41.8047C111.903 41.6054 111.52 41.5058 111.058 41.5058C110.724 41.5058 110.397 41.5698 110.078 41.6979C109.765 41.8261 109.488 42.0182 109.247 42.2744C109.005 42.5235 108.81 42.8295 108.661 43.1925C108.519 43.5555 108.448 43.9718 108.448 44.4415C108.448 44.9112 108.522 45.3276 108.671 45.6905C108.821 46.0535 109.016 46.3631 109.257 46.6193C109.499 46.8684 109.776 47.057 110.088 47.1851C110.401 47.3132 110.724 47.3772 111.058 47.3772C111.512 47.3772 111.892 47.274 112.198 47.0677C112.51 46.8613 112.77 46.6122 112.976 46.3204V47.2598H114.265ZM112.997 44.4415C112.997 44.7191 112.951 44.9682 112.858 45.1888C112.773 45.4094 112.656 45.6016 112.507 45.7653C112.358 45.9218 112.184 46.0428 111.985 46.1282C111.786 46.2136 111.58 46.2563 111.367 46.2563C111.147 46.2563 110.937 46.2136 110.738 46.1282C110.546 46.0428 110.376 45.9218 110.227 45.7653C110.078 45.6087 109.961 45.4201 109.875 45.1995C109.79 44.9717 109.747 44.7191 109.747 44.4415C109.747 44.1568 109.79 43.9042 109.875 43.6836C109.961 43.4558 110.078 43.2637 110.227 43.1071C110.376 42.9505 110.546 42.8331 110.738 42.7548C110.937 42.6694 111.147 42.6267 111.367 42.6267C111.58 42.6267 111.786 42.6694 111.985 42.7548C112.184 42.8402 112.358 42.9648 112.507 43.1284C112.656 43.285 112.773 43.4736 112.858 43.6942C112.951 43.9149 112.997 44.164 112.997 44.4415Z" fill="#C30045"/>
<path d="M122.195 45.5945V45.5731C122.195 45.3169 122.142 45.0998 122.035 44.9219C121.929 44.744 121.79 44.5945 121.62 44.4735C121.457 44.3454 121.272 44.2387 121.066 44.1533C120.86 44.0679 120.654 43.9932 120.448 43.9291C120.285 43.8793 120.125 43.8295 119.969 43.7796C119.819 43.7227 119.685 43.6658 119.564 43.6088C119.45 43.5448 119.358 43.4772 119.287 43.406C119.216 43.3277 119.18 43.2388 119.18 43.1391V43.1178C119.18 42.9541 119.248 42.8189 119.383 42.7121C119.525 42.6054 119.72 42.552 119.969 42.552C120.203 42.552 120.459 42.6018 120.736 42.7014C121.013 42.794 121.286 42.9221 121.556 43.0857L122.067 42.1677C121.769 41.9684 121.439 41.8118 121.077 41.6979C120.714 41.5841 120.356 41.5271 120.001 41.5271C119.724 41.5271 119.461 41.5663 119.212 41.6446C118.971 41.7229 118.758 41.8367 118.573 41.9862C118.395 42.1356 118.253 42.3171 118.147 42.5306C118.047 42.7441 117.998 42.9826 117.998 43.2459V43.2672C117.998 43.5377 118.051 43.7654 118.157 43.9504C118.264 44.1284 118.399 44.2814 118.562 44.4095C118.733 44.5305 118.921 44.6301 119.127 44.7084C119.34 44.7867 119.55 44.8579 119.756 44.9219C119.919 44.9717 120.075 45.0215 120.224 45.0714C120.381 45.1141 120.515 45.1674 120.629 45.2315C120.75 45.2884 120.842 45.356 120.906 45.4343C120.977 45.5126 121.013 45.6051 121.013 45.7119V45.7332C121.013 45.9183 120.935 46.0677 120.778 46.1816C120.629 46.2884 120.416 46.3417 120.139 46.3417C119.848 46.3417 119.542 46.2848 119.223 46.1709C118.91 46.0499 118.601 45.8756 118.296 45.6478L117.721 46.5232C118.076 46.8008 118.459 47.0107 118.871 47.1531C119.29 47.2954 119.702 47.3666 120.107 47.3666C120.398 47.3666 120.672 47.331 120.927 47.2598C121.183 47.1815 121.403 47.0712 121.588 46.9289C121.78 46.7794 121.929 46.5944 122.035 46.3738C122.142 46.1531 122.195 45.8934 122.195 45.5945Z" fill="#C30045"/>
<path d="M124.468 40.7585V39.5308H123.083V40.7585H124.468ZM124.425 47.2598V41.6232H123.136V47.2598H124.425Z" fill="#C30045"/>
<path d="M127.222 42.7335H128.735V41.6232H127.222V40.0753H125.933V41.6232H125.219V42.7335H125.933V45.7012C125.933 46.0144 125.972 46.2777 126.05 46.4912C126.128 46.6976 126.238 46.8648 126.38 46.9929C126.529 47.121 126.703 47.2136 126.902 47.2705C127.101 47.3274 127.318 47.3559 127.552 47.3559C127.793 47.3559 128.007 47.331 128.191 47.2812C128.376 47.2313 128.55 47.1602 128.713 47.0677V46.0108C128.458 46.1389 128.191 46.203 127.914 46.203C127.694 46.203 127.524 46.1496 127.403 46.0428C127.282 45.929 127.222 45.7475 127.222 45.4984V42.7335Z" fill="#C30045"/>
<path d="M130.416 44.9006H134.55C134.557 44.8365 134.56 44.776 134.56 44.7191C134.568 44.6621 134.571 44.6052 134.571 44.5483C134.571 44.1426 134.514 43.7547 134.401 43.3847C134.287 43.0146 134.117 42.6908 133.889 42.4132C133.669 42.1356 133.389 41.915 133.048 41.7513C132.714 41.5876 132.323 41.5058 131.876 41.5058C131.471 41.5058 131.102 41.5841 130.768 41.7406C130.434 41.8972 130.143 42.1107 129.894 42.3812C129.653 42.6445 129.464 42.9541 129.329 43.3099C129.195 43.6658 129.127 44.0465 129.127 44.4522C129.127 44.8934 129.202 45.2955 129.351 45.6585C129.5 46.0144 129.702 46.3204 129.958 46.5766C130.221 46.8328 130.526 47.0321 130.874 47.1744C131.229 47.3167 131.609 47.3879 132.014 47.3879C132.533 47.3879 132.977 47.2918 133.346 47.0997C133.722 46.9075 134.046 46.6513 134.315 46.3311L133.559 45.6585C133.332 45.8791 133.101 46.0464 132.867 46.1603C132.632 46.2741 132.355 46.3311 132.036 46.3311C131.616 46.3311 131.261 46.2101 130.97 45.9681C130.679 45.719 130.494 45.3632 130.416 44.9006ZM130.405 44.0465C130.462 43.6053 130.619 43.2494 130.874 42.979C131.137 42.7014 131.467 42.5627 131.865 42.5627C132.078 42.5627 132.266 42.6018 132.43 42.6801C132.6 42.7584 132.746 42.8651 132.867 43.0003C132.987 43.1284 133.083 43.285 133.154 43.4701C133.225 43.648 133.271 43.8401 133.293 44.0465H130.405Z" fill="#C30045"/>
<path d="M139.578 40.7585V39.5308H138.193V40.7585H139.578ZM139.536 47.2598V41.6232H138.247V47.2598H139.536Z" fill="#C30045"/>
<path d="M142.066 44.0786C142.066 43.6373 142.183 43.2957 142.417 43.0537C142.651 42.8046 142.957 42.6801 143.333 42.6801C143.717 42.6801 144.012 42.8011 144.218 43.043C144.431 43.2779 144.537 43.616 144.537 44.0572V47.2598H145.826V43.6729C145.826 43.011 145.652 42.4844 145.304 42.0929C144.956 41.7015 144.463 41.5058 143.823 41.5058C143.603 41.5058 143.404 41.5343 143.227 41.5912C143.056 41.641 142.897 41.7122 142.747 41.8047C142.605 41.8972 142.477 42.004 142.364 42.125C142.257 42.2388 142.158 42.3634 142.066 42.4986V41.6232H140.776V47.2598H142.066V44.0786Z" fill="#C30045"/>
<path d="M151.245 42.7335H152.758V41.6232H151.245V40.0753H149.956V41.6232H149.242V42.7335H149.956V45.7012C149.956 46.0144 149.995 46.2777 150.073 46.4912C150.151 46.6976 150.261 46.8648 150.403 46.9929C150.552 47.121 150.726 47.2136 150.925 47.2705C151.124 47.3274 151.341 47.3559 151.575 47.3559C151.816 47.3559 152.03 47.331 152.214 47.2812C152.399 47.2313 152.573 47.1602 152.736 47.0677V46.0108C152.481 46.1389 152.214 46.203 151.937 46.203C151.717 46.203 151.547 46.1496 151.426 46.0428C151.305 45.929 151.245 45.7475 151.245 45.4984V42.7335Z" fill="#C30045"/>
<path d="M154.904 44.0786C154.904 43.6373 155.021 43.2957 155.256 43.0537C155.49 42.8046 155.796 42.6801 156.172 42.6801C156.556 42.6801 156.85 42.8011 157.056 43.043C157.269 43.2779 157.376 43.616 157.376 44.0572V47.2598H158.665V43.6729C158.665 43.011 158.491 42.4844 158.143 42.0929C157.795 41.7015 157.301 41.5058 156.662 41.5058C156.442 41.5058 156.243 41.5343 156.065 41.5912C155.895 41.641 155.735 41.7122 155.586 41.8047C155.444 41.8972 155.316 42.004 155.202 42.125C155.096 42.2388 154.997 42.3634 154.904 42.4986V39.4668H153.615V47.2598H154.904V44.0786Z" fill="#C30045"/>
<path d="M160.758 44.9006H164.892C164.899 44.8365 164.902 44.776 164.902 44.7191C164.909 44.6621 164.913 44.6052 164.913 44.5483C164.913 44.1426 164.856 43.7547 164.742 43.3847C164.629 43.0146 164.458 42.6908 164.231 42.4132C164.011 42.1356 163.73 41.915 163.389 41.7513C163.056 41.5876 162.665 41.5058 162.217 41.5058C161.813 41.5058 161.443 41.5841 161.109 41.7406C160.776 41.8972 160.484 42.1107 160.236 42.3812C159.994 42.6445 159.806 42.9541 159.671 43.3099C159.536 43.6658 159.469 44.0465 159.469 44.4522C159.469 44.8934 159.543 45.2955 159.693 45.6585C159.842 46.0144 160.044 46.3204 160.3 46.5766C160.563 46.8328 160.868 47.0321 161.216 47.1744C161.571 47.3167 161.951 47.3879 162.356 47.3879C162.874 47.3879 163.318 47.2918 163.688 47.0997C164.064 46.9075 164.387 46.6513 164.657 46.3311L163.901 45.6585C163.673 45.8791 163.443 46.0464 163.208 46.1603C162.974 46.2741 162.697 46.3311 162.377 46.3311C161.958 46.3311 161.603 46.2101 161.312 45.9681C161.021 45.719 160.836 45.3632 160.758 44.9006ZM160.747 44.0465C160.804 43.6053 160.96 43.2494 161.216 42.979C161.479 42.7014 161.809 42.5627 162.207 42.5627C162.42 42.5627 162.608 42.6018 162.771 42.6801C162.942 42.7584 163.088 42.8651 163.208 43.0003C163.329 43.1284 163.425 43.285 163.496 43.4701C163.567 43.648 163.613 43.8401 163.634 44.0465H160.747Z" fill="#C30045"/>
<path d="M174.682 41.9008V47.2598H175.993V39.7871H174.597L172.328 43.3206L170.059 39.7871H168.663V47.2598H169.952V41.9221L172.285 45.4236H172.328L174.682 41.9008Z" fill="#C30045"/>
<path d="M178.725 40.7585V39.5308H177.34V40.7585H178.725ZM178.683 47.2598V41.6232H177.394V47.2598H178.683Z" fill="#C30045"/>
<path d="M185.453 47.2598V39.4668H184.164V42.4986C183.958 42.2353 183.702 42.004 183.397 41.8047C183.091 41.6054 182.708 41.5058 182.246 41.5058C181.912 41.5058 181.585 41.5698 181.266 41.6979C180.953 41.8261 180.676 42.0182 180.435 42.2744C180.193 42.5235 179.998 42.8295 179.849 43.1925C179.707 43.5555 179.636 43.9718 179.636 44.4415C179.636 44.9112 179.71 45.3276 179.86 45.6905C180.009 46.0535 180.204 46.3631 180.446 46.6193C180.687 46.8684 180.964 47.057 181.277 47.1851C181.589 47.3132 181.912 47.3772 182.246 47.3772C182.701 47.3772 183.081 47.274 183.386 47.0677C183.699 46.8613 183.958 46.6122 184.164 46.3204V47.2598H185.453ZM184.185 44.4415C184.185 44.7191 184.139 44.9682 184.047 45.1888C183.961 45.4094 183.844 45.6016 183.695 45.7653C183.546 45.9218 183.372 46.0428 183.173 46.1282C182.974 46.2136 182.768 46.2563 182.555 46.2563C182.335 46.2563 182.125 46.2136 181.926 46.1282C181.735 46.0428 181.564 45.9218 181.415 45.7653C181.266 45.6087 181.149 45.4201 181.063 45.1995C180.978 44.9717 180.936 44.7191 180.936 44.4415C180.936 44.1568 180.978 43.9042 181.063 43.6836C181.149 43.4558 181.266 43.2637 181.415 43.1071C181.564 42.9505 181.735 42.8331 181.926 42.7548C182.125 42.6694 182.335 42.6267 182.555 42.6267C182.768 42.6267 182.974 42.6694 183.173 42.7548C183.372 42.8402 183.546 42.9648 183.695 43.1284C183.844 43.285 183.961 43.4736 184.047 43.6942C184.139 43.9149 184.185 44.164 184.185 44.4415Z" fill="#C30045"/>
<path d="M192.146 47.2598V39.4668H190.857V42.4986C190.651 42.2353 190.395 42.004 190.09 41.8047C189.785 41.6054 189.401 41.5058 188.939 41.5058C188.605 41.5058 188.279 41.5698 187.959 41.6979C187.647 41.8261 187.37 42.0182 187.128 42.2744C186.887 42.5235 186.691 42.8295 186.542 43.1925C186.4 43.5555 186.329 43.9718 186.329 44.4415C186.329 44.9112 186.404 45.3276 186.553 45.6905C186.702 46.0535 186.897 46.3631 187.139 46.6193C187.38 46.8684 187.657 47.057 187.97 47.1851C188.282 47.3132 188.605 47.3772 188.939 47.3772C189.394 47.3772 189.774 47.274 190.079 47.0677C190.392 46.8613 190.651 46.6122 190.857 46.3204V47.2598H192.146ZM190.878 44.4415C190.878 44.7191 190.832 44.9682 190.74 45.1888C190.655 45.4094 190.537 45.6016 190.388 45.7653C190.239 45.9218 190.065 46.0428 189.866 46.1282C189.667 46.2136 189.461 46.2563 189.248 46.2563C189.028 46.2563 188.819 46.2136 188.62 46.1282C188.428 46.0428 188.257 45.9218 188.108 45.7653C187.959 45.6087 187.842 45.4201 187.757 45.1995C187.672 44.9717 187.629 44.7191 187.629 44.4415C187.629 44.1568 187.672 43.9042 187.757 43.6836C187.842 43.4558 187.959 43.2637 188.108 43.1071C188.257 42.9505 188.428 42.8331 188.62 42.7548C188.819 42.6694 189.028 42.6267 189.248 42.6267C189.461 42.6267 189.667 42.6694 189.866 42.7548C190.065 42.8402 190.239 42.9648 190.388 43.1284C190.537 43.285 190.655 43.4736 190.74 43.6942C190.832 43.9149 190.878 44.164 190.878 44.4415Z" fill="#C30045"/>
<path d="M194.674 47.2598V39.4668H193.385V47.2598H194.674Z" fill="#C30045"/>
<path d="M196.895 44.9006H201.028C201.035 44.8365 201.039 44.776 201.039 44.7191C201.046 44.6621 201.05 44.6052 201.05 44.5483C201.05 44.1426 200.993 43.7547 200.879 43.3847C200.766 43.0146 200.595 42.6908 200.368 42.4132C200.148 42.1356 199.867 41.915 199.526 41.7513C199.192 41.5876 198.802 41.5058 198.354 41.5058C197.949 41.5058 197.58 41.5841 197.246 41.7406C196.912 41.8972 196.621 42.1107 196.373 42.3812C196.131 42.6445 195.943 42.9541 195.808 43.3099C195.673 43.6658 195.606 44.0465 195.606 44.4522C195.606 44.8934 195.68 45.2955 195.829 45.6585C195.979 46.0144 196.181 46.3204 196.437 46.5766C196.699 46.8328 197.005 47.0321 197.353 47.1744C197.708 47.3167 198.088 47.3879 198.493 47.3879C199.011 47.3879 199.455 47.2918 199.825 47.0997C200.201 46.9075 200.524 46.6513 200.794 46.3311L200.038 45.6585C199.81 45.8791 199.579 46.0464 199.345 46.1603C199.111 46.2741 198.834 46.3311 198.514 46.3311C198.095 46.3311 197.74 46.2101 197.449 45.9681C197.158 45.719 196.973 45.3632 196.895 44.9006ZM196.884 44.0465C196.941 43.6053 197.097 43.2494 197.353 42.979C197.616 42.7014 197.946 42.5627 198.344 42.5627C198.557 42.5627 198.745 42.6018 198.908 42.6801C199.079 42.7584 199.224 42.8651 199.345 43.0003C199.466 43.1284 199.562 43.285 199.633 43.4701C199.704 43.648 199.75 43.8401 199.771 44.0465H196.884Z" fill="#C30045"/>
<path d="M210.329 39.7871H204.8V47.2598H210.382V46.0855H206.11V44.0786H209.85V42.9043H206.11V40.9613H210.329V39.7871Z" fill="#C30045"/>
<path d="M216.063 47.2598V43.9184C216.063 43.164 215.861 42.5804 215.456 42.1677C215.051 41.7478 214.43 41.5378 213.592 41.5378C213.13 41.5378 212.736 41.5805 212.409 41.6659C212.082 41.7513 211.763 41.8652 211.45 42.0075L211.802 43.043C212.058 42.9363 212.31 42.8509 212.558 42.7868C212.807 42.7228 213.091 42.6908 213.411 42.6908C213.858 42.6908 214.199 42.794 214.433 43.0003C214.675 43.2067 214.796 43.5056 214.796 43.8971V44.0359C214.575 43.9647 214.345 43.9077 214.103 43.865C213.869 43.8223 213.581 43.801 213.24 43.801C212.913 43.801 212.608 43.8401 212.324 43.9184C212.047 43.9896 211.805 44.0999 211.6 44.2494C211.401 44.3988 211.244 44.5874 211.131 44.8152C211.017 45.0429 210.96 45.3098 210.96 45.6158V45.6372C210.96 45.9218 211.014 46.1745 211.12 46.3951C211.234 46.6086 211.379 46.7901 211.557 46.9396C211.742 47.0819 211.955 47.1886 212.196 47.2598C212.438 47.3381 212.693 47.3772 212.963 47.3772C213.389 47.3772 213.752 47.299 214.05 47.1424C214.348 46.9858 214.593 46.7937 214.785 46.5659V47.2598H216.063ZM214.817 45.2208C214.817 45.3987 214.778 45.5624 214.7 45.7119C214.629 45.8542 214.526 45.9788 214.391 46.0855C214.256 46.1852 214.096 46.2634 213.911 46.3204C213.734 46.3773 213.539 46.4058 213.325 46.4058C213.02 46.4058 212.761 46.3346 212.548 46.1923C212.342 46.0499 212.239 45.8435 212.239 45.5731V45.5518C212.239 45.26 212.352 45.0358 212.58 44.8792C212.807 44.7226 213.123 44.6443 213.528 44.6443C213.776 44.6443 214.011 44.6657 214.231 44.7084C214.458 44.7511 214.654 44.8045 214.817 44.8685V45.2208Z" fill="#C30045"/>
<path d="M221.169 45.5945V45.5731C221.169 45.3169 221.116 45.0998 221.009 44.9219C220.903 44.744 220.764 44.5945 220.594 44.4735C220.431 44.3454 220.246 44.2387 220.04 44.1533C219.834 44.0679 219.628 43.9932 219.422 43.9291C219.259 43.8793 219.099 43.8295 218.943 43.7796C218.793 43.7227 218.659 43.6658 218.538 43.6088C218.424 43.5448 218.332 43.4772 218.261 43.406C218.19 43.3277 218.154 43.2388 218.154 43.1391V43.1178C218.154 42.9541 218.222 42.8189 218.357 42.7121C218.499 42.6054 218.694 42.552 218.943 42.552C219.177 42.552 219.433 42.6018 219.71 42.7014C219.987 42.794 220.26 42.9221 220.53 43.0857L221.041 42.1677C220.743 41.9684 220.413 41.8118 220.051 41.6979C219.688 41.5841 219.33 41.5271 218.975 41.5271C218.698 41.5271 218.435 41.5663 218.186 41.6446C217.945 41.7229 217.732 41.8367 217.547 41.9862C217.369 42.1356 217.227 42.3171 217.121 42.5306C217.021 42.7441 216.972 42.9826 216.972 43.2459V43.2672C216.972 43.5377 217.025 43.7654 217.131 43.9504C217.238 44.1284 217.373 44.2814 217.536 44.4095C217.707 44.5305 217.895 44.6301 218.101 44.7084C218.314 44.7867 218.524 44.8579 218.73 44.9219C218.893 44.9717 219.049 45.0215 219.198 45.0714C219.355 45.1141 219.49 45.1674 219.603 45.2315C219.724 45.2884 219.816 45.356 219.88 45.4343C219.951 45.5126 219.987 45.6051 219.987 45.7119V45.7332C219.987 45.9183 219.909 46.0677 219.752 46.1816C219.603 46.2884 219.39 46.3417 219.113 46.3417C218.822 46.3417 218.516 46.2848 218.197 46.1709C217.884 46.0499 217.575 45.8756 217.27 45.6478L216.695 46.5232C217.05 46.8008 217.433 47.0107 217.845 47.1531C218.264 47.2954 218.676 47.3666 219.081 47.3666C219.372 47.3666 219.646 47.331 219.901 47.2598C220.157 47.1815 220.377 47.0712 220.562 46.9289C220.754 46.7794 220.903 46.5944 221.009 46.3738C221.116 46.1531 221.169 45.8934 221.169 45.5945Z" fill="#C30045"/>
<path d="M223.487 42.7335H225V41.6232H223.487V40.0753H222.198V41.6232H221.484V42.7335H222.198V45.7012C222.198 46.0144 222.237 46.2777 222.315 46.4912C222.393 46.6976 222.503 46.8648 222.646 46.9929C222.795 47.121 222.969 47.2136 223.168 47.2705C223.366 47.3274 223.583 47.3559 223.817 47.3559C224.059 47.3559 224.272 47.331 224.457 47.2812C224.641 47.2313 224.815 47.1602 224.979 47.0677V46.0108C224.723 46.1389 224.457 46.203 224.18 46.203C223.959 46.203 223.789 46.1496 223.668 46.0428C223.548 45.929 223.487 45.7475 223.487 45.4984V42.7335Z" fill="#C30045"/>
</svg>
