<svg width="145" height="22" viewBox="0 0 145 22" fill="none" xmlns="http://www.w3.org/2000/svg">
<mask id="path-1-outside-1_0_1978" maskUnits="userSpaceOnUse" x="0" y="6.06055" width="22" height="16" fill="black">
<rect fill="white" y="6.06055" width="22" height="16"/>
<path fill-rule="evenodd" clip-rule="evenodd" d="M1 7.38153H2.30991V9.81056C3.19083 8.3961 4.42076 7.06055 6.8535 7.06055C9.23082 7.06055 10.7013 8.42319 11.45 9.99745C12.3323 8.47659 13.8015 7.06055 16.3681 7.06055C19.6 7.06055 21.6059 9.33155 21.6059 12.7479V20.9999H20.2952V12.9075C20.2952 9.97312 18.7735 8.26399 16.2602 8.26399C13.9621 8.26399 11.9569 10.0241 11.9569 13.0702V20.9999H10.6466V12.8276C10.6466 9.99745 9.0968 8.26399 6.66544 8.26399C4.23369 8.26399 2.30991 10.3997 2.30991 13.1493V20.9999H1V7.38153Z"/>
</mask>
<path fill-rule="evenodd" clip-rule="evenodd" d="M1 7.38153H2.30991V9.81056C3.19083 8.3961 4.42076 7.06055 6.8535 7.06055C9.23082 7.06055 10.7013 8.42319 11.45 9.99745C12.3323 8.47659 13.8015 7.06055 16.3681 7.06055C19.6 7.06055 21.6059 9.33155 21.6059 12.7479V20.9999H20.2952V12.9075C20.2952 9.97312 18.7735 8.26399 16.2602 8.26399C13.9621 8.26399 11.9569 10.0241 11.9569 13.0702V20.9999H10.6466V12.8276C10.6466 9.99745 9.0968 8.26399 6.66544 8.26399C4.23369 8.26399 2.30991 10.3997 2.30991 13.1493V20.9999H1V7.38153Z" fill="#004B87"/>
<path d="M1 7.08153C0.834315 7.08153 0.7 7.21584 0.7 7.38153C0.7 7.54722 0.834315 7.68153 1 7.68153V7.08153ZM2.30991 7.38153H2.60991C2.60991 7.21584 2.47559 7.08153 2.30991 7.08153V7.38153ZM2.30991 9.81056H2.00991C2.00991 9.94448 2.09867 10.0622 2.22743 10.099C2.35619 10.1358 2.49376 10.0828 2.56456 9.96915L2.30991 9.81056ZM11.45 9.99745L11.179 10.1263C11.2269 10.2269 11.3264 10.2926 11.4377 10.2972C11.549 10.3018 11.6536 10.2443 11.7095 10.148L11.45 9.99745ZM21.6059 20.9999V21.2999C21.7716 21.2999 21.9059 21.1655 21.9059 20.9999H21.6059ZM20.2952 20.9999H19.9952C19.9952 21.1655 20.1296 21.2999 20.2952 21.2999V20.9999ZM11.9569 20.9999V21.2999C12.1226 21.2999 12.2569 21.1655 12.2569 20.9999H11.9569ZM10.6466 20.9999H10.3466C10.3466 21.1655 10.4809 21.2999 10.6466 21.2999V20.9999ZM2.30991 20.9999V21.2999C2.47559 21.2999 2.60991 21.1655 2.60991 20.9999H2.30991ZM1 20.9999H0.7C0.7 21.1655 0.834315 21.2999 1 21.2999V20.9999ZM1.3 7.38153C1.3 7.21584 1.16569 7.08153 1 7.08153C0.834315 7.08153 0.7 7.21584 0.7 7.38153H1.3ZM1 7.68153H2.30991V7.08153H1V7.68153ZM2.00991 7.38153V9.81056H2.60991V7.38153H2.00991ZM2.56456 9.96915C2.99562 9.27702 3.49816 8.6276 4.17307 8.15002C4.84242 7.67636 5.69713 7.36055 6.8535 7.36055V6.76055C5.57713 6.76055 4.60051 7.11251 3.82648 7.66024C3.058 8.20404 2.50512 8.92963 2.05526 9.65196L2.56456 9.96915ZM6.8535 7.36055C9.091 7.36055 10.4688 8.63295 11.179 10.1263L11.7209 9.8686C10.9337 8.21343 9.37064 6.76055 6.8535 6.76055V7.36055ZM11.7095 10.148C12.5567 8.68749 13.9411 7.36055 16.3681 7.36055V6.76055C13.662 6.76055 12.1078 8.26569 11.1905 9.84691L11.7095 10.148ZM16.3681 7.36055C17.9101 7.36055 19.1352 7.90003 19.9771 8.82503C20.8219 9.75317 21.3059 11.0974 21.3059 12.7479H21.9059C21.9059 10.982 21.387 9.48259 20.4208 8.42115C19.4518 7.35656 18.0581 6.76055 16.3681 6.76055V7.36055ZM21.3059 12.7479V20.9999H21.9059V12.7479H21.3059ZM21.6059 20.6999H20.2952V21.2999H21.6059V20.6999ZM20.5952 20.9999V12.9075H19.9952V20.9999H20.5952ZM20.5952 12.9075C20.5952 11.3913 20.202 10.1521 19.446 9.28783C18.6854 8.41832 17.5887 7.96399 16.2602 7.96399V8.56399C17.4451 8.56399 18.3658 8.96422 18.9944 9.68286C19.6276 10.4067 19.9952 11.4893 19.9952 12.9075H20.5952ZM16.2602 7.96399C15.0332 7.96399 13.8781 8.43465 13.0304 9.31699C12.1818 10.2003 11.6569 11.4794 11.6569 13.0702H12.2569C12.2569 11.615 12.7346 10.491 13.4631 9.73267C14.1926 8.9734 15.189 8.56399 16.2602 8.56399V7.96399ZM11.6569 13.0702V20.9999H12.2569V13.0702H11.6569ZM11.9569 20.6999H10.6466V21.2999H11.9569V20.6999ZM10.9466 20.9999V12.8276H10.3466V20.9999H10.9466ZM10.9466 12.8276C10.9466 11.3597 10.5444 10.1418 9.79319 9.2865C9.03816 8.4269 7.95673 7.96399 6.66544 7.96399V8.56399C7.8055 8.56399 8.71467 8.9678 9.3424 9.68246C9.97393 10.4015 10.3466 11.4653 10.3466 12.8276H10.9466ZM6.66544 7.96399C4.03738 7.96399 2.00991 10.2664 2.00991 13.1493H2.60991C2.60991 10.533 4.43 8.56399 6.66544 8.56399V7.96399ZM2.00991 13.1493V20.9999H2.60991V13.1493H2.00991ZM2.30991 20.6999H1V21.2999H2.30991V20.6999ZM1.3 20.9999V7.38153H0.7V20.9999H1.3Z" fill="#004B87" mask="url(#path-1-outside-1_0_1978)"/>
<mask id="path-3-outside-2_0_1978" maskUnits="userSpaceOnUse" x="22.9053" y="6.06055" width="14" height="16" fill="black">
<rect fill="white" x="22.9053" y="6.06055" width="14" height="16"/>
<path fill-rule="evenodd" clip-rule="evenodd" d="M23.9053 15.3926V7.06055H25.2525V15.1526C25.2525 17.9545 26.8745 19.7974 29.7066 19.7974C32.4554 19.7974 34.5732 17.7686 34.5732 14.939V7.06055H35.921V20.681H34.5732V18.142C33.6389 19.744 32.071 20.9999 29.5139 20.9999C25.9666 20.9999 23.9053 18.6516 23.9053 15.3926Z"/>
</mask>
<path fill-rule="evenodd" clip-rule="evenodd" d="M23.9053 15.3926V7.06055H25.2525V15.1526C25.2525 17.9545 26.8745 19.7974 29.7066 19.7974C32.4554 19.7974 34.5732 17.7686 34.5732 14.939V7.06055H35.921V20.681H34.5732V18.142C33.6389 19.744 32.071 20.9999 29.5139 20.9999C25.9666 20.9999 23.9053 18.6516 23.9053 15.3926Z" fill="#004B87"/>
<path d="M23.6053 15.3926C23.6053 15.5583 23.7396 15.6926 23.9053 15.6926C24.071 15.6926 24.2053 15.5583 24.2053 15.3926H23.6053ZM23.9053 7.06055V6.76055C23.7396 6.76055 23.6053 6.89486 23.6053 7.06055H23.9053ZM25.2525 7.06055H25.5525C25.5525 6.89486 25.4182 6.76055 25.2525 6.76055V7.06055ZM34.5732 7.06055V6.76055C34.4075 6.76055 34.2732 6.89486 34.2732 7.06055H34.5732ZM35.921 7.06055H36.221C36.221 6.89486 36.0867 6.76055 35.921 6.76055V7.06055ZM35.921 20.681V20.981C36.0867 20.981 36.221 20.8467 36.221 20.681H35.921ZM34.5732 20.681H34.2732C34.2732 20.8467 34.4075 20.981 34.5732 20.981V20.681ZM34.5732 18.142H34.8732C34.8732 18.0065 34.7823 17.8878 34.6515 17.8524C34.5206 17.817 34.3823 17.8738 34.314 17.9909L34.5732 18.142ZM24.2053 15.3926C24.2053 15.2269 24.071 15.0926 23.9053 15.0926C23.7396 15.0926 23.6053 15.2269 23.6053 15.3926H24.2053ZM24.2053 15.3926V7.06055H23.6053V15.3926H24.2053ZM23.9053 7.36055H25.2525V6.76055H23.9053V7.36055ZM24.9525 7.06055V15.1526H25.5525V7.06055H24.9525ZM24.9525 15.1526C24.9525 16.6103 25.375 17.8515 26.1985 18.7308C27.0246 19.6128 28.2231 20.0974 29.7066 20.0974V19.4974C28.358 19.4974 27.3295 19.0606 26.6365 18.3207C25.9409 17.578 25.5525 16.4968 25.5525 15.1526H24.9525ZM29.7066 20.0974C32.6171 20.0974 34.8732 17.9382 34.8732 14.939H34.2732C34.2732 17.5989 32.2937 19.4974 29.7066 19.4974V20.0974ZM34.8732 14.939V7.06055H34.2732V14.939H34.8732ZM34.5732 7.36055H35.921V6.76055H34.5732V7.36055ZM35.621 7.06055V20.681H36.221V7.06055H35.621ZM35.921 20.381H34.5732V20.981H35.921V20.381ZM34.8732 20.681V18.142H34.2732V20.681H34.8732ZM34.314 17.9909C33.4253 19.5147 31.9491 20.6999 29.5139 20.6999V21.2999C32.193 21.2999 33.8524 19.9733 34.8323 18.2932L34.314 17.9909ZM29.5139 20.6999C27.8089 20.6999 26.4892 20.1373 25.5953 19.2101C24.6998 18.2812 24.2053 16.9588 24.2053 15.3926H23.6053C23.6053 17.0853 24.1415 18.5666 25.1634 19.6266C26.187 20.6883 27.6716 21.2999 29.5139 21.2999V20.6999Z" fill="#004B87" mask="url(#path-3-outside-2_0_1978)"/>
<mask id="path-5-outside-3_0_1978" maskUnits="userSpaceOnUse" x="37.2217" y="6.06055" width="22" height="16" fill="black">
<rect fill="white" x="37.2217" y="6.06055" width="22" height="16"/>
<path fill-rule="evenodd" clip-rule="evenodd" d="M38.2217 7.38153H39.5314V9.81056C40.4138 8.3961 41.6428 7.06055 44.074 7.06055C46.4536 7.06055 47.9227 8.42319 48.6705 9.99745C49.5532 8.47659 51.0231 7.06055 53.5882 7.06055C56.8228 7.06055 58.8276 9.33155 58.8276 12.7479V20.9999H57.5163V12.9075C57.5163 9.97312 55.9943 8.26399 53.4823 8.26399C51.1843 8.26399 49.1792 10.0241 49.1792 13.0702V20.9999H47.8695V12.8276C47.8695 9.99745 46.3196 8.26399 43.8867 8.26399C41.4547 8.26399 39.5314 10.3997 39.5314 13.1493V20.9999H38.2217V7.38153Z"/>
</mask>
<path fill-rule="evenodd" clip-rule="evenodd" d="M38.2217 7.38153H39.5314V9.81056C40.4138 8.3961 41.6428 7.06055 44.074 7.06055C46.4536 7.06055 47.9227 8.42319 48.6705 9.99745C49.5532 8.47659 51.0231 7.06055 53.5882 7.06055C56.8228 7.06055 58.8276 9.33155 58.8276 12.7479V20.9999H57.5163V12.9075C57.5163 9.97312 55.9943 8.26399 53.4823 8.26399C51.1843 8.26399 49.1792 10.0241 49.1792 13.0702V20.9999H47.8695V12.8276C47.8695 9.99745 46.3196 8.26399 43.8867 8.26399C41.4547 8.26399 39.5314 10.3997 39.5314 13.1493V20.9999H38.2217V7.38153Z" fill="#004B87"/>
<path d="M38.2217 7.08153C38.056 7.08153 37.9217 7.21584 37.9217 7.38153C37.9217 7.54722 38.056 7.68153 38.2217 7.68153V7.08153ZM39.5314 7.38153H39.8314C39.8314 7.21584 39.6971 7.08153 39.5314 7.08153V7.38153ZM39.5314 9.81056H39.2314C39.2314 9.94444 39.3201 10.0621 39.4489 10.099C39.5776 10.1358 39.7151 10.0829 39.786 9.96934L39.5314 9.81056ZM48.6705 9.99745L48.3995 10.1262C48.4472 10.2268 48.5468 10.2926 48.6581 10.2972C48.7694 10.3018 48.874 10.2444 48.9299 10.148L48.6705 9.99745ZM58.8276 20.9999V21.2999C58.9933 21.2999 59.1276 21.1655 59.1276 20.9999H58.8276ZM57.5163 20.9999H57.2163C57.2163 21.1655 57.3506 21.2999 57.5163 21.2999V20.9999ZM49.1792 20.9999V21.2999C49.3449 21.2999 49.4792 21.1655 49.4792 20.9999H49.1792ZM47.8695 20.9999H47.5695C47.5695 21.1655 47.7038 21.2999 47.8695 21.2999V20.9999ZM39.5314 20.9999V21.2999C39.6971 21.2999 39.8314 21.1655 39.8314 20.9999H39.5314ZM38.2217 20.9999H37.9217C37.9217 21.1655 38.056 21.2999 38.2217 21.2999V20.9999ZM38.5217 7.38153C38.5217 7.21584 38.3874 7.08153 38.2217 7.08153C38.056 7.08153 37.9217 7.21584 37.9217 7.38153H38.5217ZM38.2217 7.68153H39.5314V7.08153H38.2217V7.68153ZM39.2314 7.38153V9.81056H39.8314V7.38153H39.2314ZM39.786 9.96934C40.2178 9.27706 40.7205 8.6276 41.3952 8.14999C42.0644 7.67633 42.9185 7.36055 44.074 7.36055V6.76055C42.7983 6.76055 41.8223 7.11254 41.0486 7.66027C40.2804 8.20405 39.7274 8.92959 39.2769 9.65178L39.786 9.96934ZM44.074 7.36055C46.3138 7.36055 47.6902 8.63295 48.3995 10.1262L48.9414 9.86874C48.1552 8.21343 46.5934 6.76055 44.074 6.76055V7.36055ZM48.9299 10.148C49.7777 8.68748 51.1627 7.36055 53.5882 7.36055V6.76055C50.8836 6.76055 49.3287 8.2657 48.411 9.84685L48.9299 10.148ZM53.5882 7.36055C55.1316 7.36055 56.3571 7.90008 57.199 8.82503C58.0439 9.75315 58.5276 11.0973 58.5276 12.7479H59.1276C59.1276 10.9821 58.609 9.48261 57.6427 8.42114C56.6736 7.35652 55.2794 6.76055 53.5882 6.76055V7.36055ZM58.5276 12.7479V20.9999H59.1276V12.7479H58.5276ZM58.8276 20.6999H57.5163V21.2999H58.8276V20.6999ZM57.8163 20.9999V12.9075H57.2163V20.9999H57.8163ZM57.8163 12.9075C57.8163 11.3913 57.423 10.1521 56.6671 9.28785C55.9066 8.41835 54.8101 7.96399 53.4823 7.96399V8.56399C54.6664 8.56399 55.5869 8.96419 56.2155 9.68285C56.8486 10.4067 57.2163 11.4893 57.2163 12.9075H57.8163ZM53.4823 7.96399C52.2554 7.96399 51.1003 8.43466 50.2527 9.31699C49.4041 10.2003 48.8792 11.4794 48.8792 13.0702H49.4792C49.4792 11.615 49.9569 10.491 50.6853 9.73266C51.4147 8.97339 52.4112 8.56399 53.4823 8.56399V7.96399ZM48.8792 13.0702V20.9999H49.4792V13.0702H48.8792ZM49.1792 20.6999H47.8695V21.2999H49.1792V20.6999ZM48.1695 20.9999V12.8276H47.5695V20.9999H48.1695ZM48.1695 12.8276C48.1695 11.3597 47.7672 10.1417 47.0158 9.28647C46.2605 8.42686 45.1787 7.96399 43.8867 7.96399V8.56399C45.0276 8.56399 45.9372 8.96784 46.5651 9.68249C47.1968 10.4015 47.5695 11.4653 47.5695 12.8276H48.1695ZM43.8867 7.96399C41.2584 7.96399 39.2314 10.2664 39.2314 13.1493H39.8314C39.8314 10.533 41.651 8.56399 43.8867 8.56399V7.96399ZM39.2314 13.1493V20.9999H39.8314V13.1493H39.2314ZM39.5314 20.6999H38.2217V21.2999H39.5314V20.6999ZM38.5217 20.9999V7.38153H37.9217V20.9999H38.5217Z" fill="#004B87" mask="url(#path-5-outside-3_0_1978)"/>
<mask id="path-7-outside-4_0_1978" maskUnits="userSpaceOnUse" x="60.127" y="6.06055" width="14" height="16" fill="black">
<rect fill="white" x="60.127" y="6.06055" width="14" height="16"/>
<path fill-rule="evenodd" clip-rule="evenodd" d="M61.127 20.2337L71.2413 8.26219H61.5113V7.06055H73.2481V7.82554L63.1339 19.796H73.2481V20.9999H61.127V20.2337Z"/>
</mask>
<path fill-rule="evenodd" clip-rule="evenodd" d="M61.127 20.2337L71.2413 8.26219H61.5113V7.06055H73.2481V7.82554L63.1339 19.796H73.2481V20.9999H61.127V20.2337Z" fill="#004B87"/>
<path d="M60.8978 20.04C60.7909 20.1666 60.8068 20.3559 60.9333 20.4628C61.0599 20.5697 61.2492 20.5538 61.3561 20.4273L60.8978 20.04ZM71.2413 8.26219L71.4705 8.4558C71.5459 8.3666 71.5626 8.24178 71.5134 8.13586C71.4643 8.02995 71.3581 7.96219 71.2413 7.96219V8.26219ZM61.5113 8.26219H61.2113C61.2113 8.42787 61.3456 8.56219 61.5113 8.56219V8.26219ZM61.5113 7.06055V6.76055C61.3456 6.76055 61.2113 6.89486 61.2113 7.06055H61.5113ZM73.2481 7.06055H73.5481C73.5481 6.89486 73.4138 6.76055 73.2481 6.76055V7.06055ZM73.2481 7.82554L73.4773 8.01916C73.523 7.96502 73.5481 7.89642 73.5481 7.82554H73.2481ZM63.1339 19.796L62.9048 19.6024C62.8294 19.6916 62.8126 19.8164 62.8618 19.9223C62.911 20.0282 63.0171 20.096 63.1339 20.096V19.796ZM73.2481 19.796H73.5481C73.5481 19.6303 73.4138 19.496 73.2481 19.496V19.796ZM73.2481 20.9999V21.2999C73.4138 21.2999 73.5481 21.1655 73.5481 20.9999H73.2481ZM61.127 20.9999H60.827C60.827 21.1655 60.9613 21.2999 61.127 21.2999V20.9999ZM61.427 20.2337C61.427 20.068 61.2926 19.9337 61.127 19.9337C60.9613 19.9337 60.827 20.068 60.827 20.2337H61.427ZM61.3561 20.4273L71.4705 8.4558L71.0122 8.06858L60.8978 20.04L61.3561 20.4273ZM71.2413 7.96219H61.5113V8.56219H71.2413V7.96219ZM61.8113 8.26219V7.06055H61.2113V8.26219H61.8113ZM61.5113 7.36055H73.2481V6.76055H61.5113V7.36055ZM72.9481 7.06055V7.82554H73.5481V7.06055H72.9481ZM73.0189 7.63192L62.9048 19.6024L63.3631 19.9896L73.4773 8.01916L73.0189 7.63192ZM63.1339 20.096H73.2481V19.496H63.1339V20.096ZM72.9481 19.796V20.9999H73.5481V19.796H72.9481ZM73.2481 20.6999H61.127V21.2999H73.2481V20.6999ZM61.427 20.9999V20.2337H60.827V20.9999H61.427Z" fill="#004B87" mask="url(#path-7-outside-4_0_1978)"/>
<mask id="path-9-outside-5_0_1978" maskUnits="userSpaceOnUse" x="74.5479" y="6.06055" width="22" height="16" fill="black">
<rect fill="white" x="74.5479" y="6.06055" width="22" height="16"/>
<path fill-rule="evenodd" clip-rule="evenodd" d="M75.5479 7.11438H77.0327L81.1926 19.2174L85.3511 7.06055H86.4056L90.5631 19.2174L94.723 7.11438H96.1538L91.1034 20.9999H89.9709L85.864 9.19439L81.7323 20.9999H80.597L75.5479 7.11438Z"/>
</mask>
<path fill-rule="evenodd" clip-rule="evenodd" d="M75.5479 7.11438H77.0327L81.1926 19.2174L85.3511 7.06055H86.4056L90.5631 19.2174L94.723 7.11438H96.1538L91.1034 20.9999H89.9709L85.864 9.19439L81.7323 20.9999H80.597L75.5479 7.11438Z" fill="#004B87"/>
<path d="M75.5479 6.81438C75.3822 6.81438 75.2479 6.94869 75.2479 7.11438C75.2479 7.28006 75.3822 7.41438 75.5479 7.41438V6.81438ZM77.0327 7.11438L77.3164 7.01686C77.2747 6.89572 77.1608 6.81438 77.0327 6.81438V7.11438ZM81.1926 19.2174L80.9089 19.3149C80.9505 19.4362 81.0646 19.5175 81.1928 19.5174C81.321 19.5173 81.4349 19.4358 81.4764 19.3145L81.1926 19.2174ZM85.3511 7.06055V6.76055C85.2228 6.76055 85.1088 6.84209 85.0672 6.96345L85.3511 7.06055ZM86.4056 7.06055L86.6894 6.96347C86.6479 6.8421 86.5338 6.76055 86.4056 6.76055V7.06055ZM90.5631 19.2174L90.2792 19.3145C90.3207 19.4358 90.4347 19.5173 90.5629 19.5174C90.691 19.5175 90.8051 19.4362 90.8468 19.3149L90.5631 19.2174ZM94.723 7.11438V6.81438C94.5949 6.81438 94.4809 6.89572 94.4393 7.01686L94.723 7.11438ZM96.1538 7.11438L96.4357 7.21692C96.4692 7.12495 96.4557 7.02244 96.3995 6.94228C96.3434 6.86212 96.2517 6.81438 96.1538 6.81438V7.11438ZM91.1034 20.9999V21.2999C91.2296 21.2999 91.3422 21.221 91.3854 21.1024L91.1034 20.9999ZM89.9709 20.9999L89.6876 21.0984C89.7295 21.219 89.8432 21.2999 89.9709 21.2999V20.9999ZM85.864 9.19439L86.1474 9.09582C86.1054 8.97531 85.9919 8.89451 85.8643 8.89439C85.7367 8.89427 85.623 8.97486 85.5809 9.09529L85.864 9.19439ZM81.7323 20.9999V21.2999C81.8598 21.2999 81.9734 21.2193 82.0155 21.099L81.7323 20.9999ZM80.597 20.9999L80.3151 21.1024C80.3582 21.2209 80.4709 21.2999 80.597 21.2999V20.9999ZM75.8298 7.01186C75.7732 6.85615 75.601 6.77582 75.4453 6.83244C75.2896 6.88906 75.2093 7.06119 75.2659 7.2169L75.8298 7.01186ZM75.5479 7.41438H77.0327V6.81438H75.5479V7.41438ZM76.7489 7.21189L80.9089 19.3149L81.4763 19.1199L77.3164 7.01686L76.7489 7.21189ZM81.4764 19.3145L85.6349 7.15764L85.0672 6.96345L80.9087 19.1203L81.4764 19.3145ZM85.3511 7.36055H86.4056V6.76055H85.3511V7.36055ZM86.1217 7.15762L90.2792 19.3145L90.847 19.1203L86.6894 6.96347L86.1217 7.15762ZM90.8468 19.3149L95.0067 7.21189L94.4393 7.01686L90.2794 19.1199L90.8468 19.3149ZM94.723 7.41438H96.1538V6.81438H94.723V7.41438ZM95.8719 7.01184L90.8215 20.8973L91.3854 21.1024L96.4357 7.21692L95.8719 7.01184ZM91.1034 20.6999H89.9709V21.2999H91.1034V20.6999ZM90.2543 20.9013L86.1474 9.09582L85.5807 9.29296L89.6876 21.0984L90.2543 20.9013ZM85.5809 9.09529L81.4492 20.9008L82.0155 21.099L86.1472 9.29349L85.5809 9.09529ZM81.7323 20.6999H80.597V21.2999H81.7323V20.6999ZM80.8789 20.8973L75.8298 7.01186L75.2659 7.2169L80.3151 21.1024L80.8789 20.8973Z" fill="#004B87" mask="url(#path-9-outside-5_0_1978)"/>
<path d="M98.6461 17.1079C100.734 20.8432 105.932 21.8524 109.635 20.2976C113.74 18.5771 115.359 13.9512 113.801 9.83253C113.019 7.76722 110.954 5.79645 108.928 4.96702C107.621 4.43318 105.227 4.40651 104.491 5.95489C103.657 7.71168 106.272 8.99613 107.552 9.26365C109.794 9.73261 112.173 9.37432 114.387 8.9398C115.117 8.79689 114.925 8.12291 114.206 8.26444C111.938 8.70732 107.036 9.66991 105.731 6.91251C105.245 5.88224 106.243 5.29505 107.169 5.38522C108.337 5.49987 109.389 6.30263 110.247 7.05264C111.607 8.24055 112.605 9.6088 112.986 11.4022C113.742 14.9488 112.319 18.6348 108.761 19.8766C105.602 20.9808 101.439 19.6933 99.7651 16.6616C98.0976 13.6463 99.5952 9.45096 102.422 7.73358C103.104 7.32175 102.096 7.05483 101.672 7.30961C98.5533 9.20454 96.7679 13.7504 98.6461 17.1079Z" fill="#C30045" stroke="#C30045" stroke-width="0.3"/>
<path fill-rule="evenodd" clip-rule="evenodd" d="M108.788 12.5251C108.796 12.1886 108.529 11.9034 108.191 11.9093C107.814 11.915 107.584 12.1244 107.576 12.5008C107.568 12.8804 107.798 13.0924 108.167 13.12C108.496 13.1434 108.781 12.8549 108.788 12.5251ZM104.544 13.1213C104.88 13.1251 105.163 12.854 105.152 12.5159C105.139 12.1379 104.931 11.9152 104.554 11.9092C104.173 11.9053 103.969 12.1379 103.942 12.5055C103.917 12.8303 104.216 13.1179 104.544 13.1213Z" fill="#C30045"/>
<path d="M108.788 12.5251L108.638 12.5215L108.638 12.5221L108.788 12.5251ZM108.191 11.9093L108.193 12.0593L108.193 12.0592L108.191 11.9093ZM107.576 12.5008L107.726 12.504L107.726 12.5039L107.576 12.5008ZM108.167 13.12L108.156 13.2695L108.157 13.2696L108.167 13.12ZM104.544 13.1213L104.546 12.9713L104.546 12.9713L104.544 13.1213ZM105.152 12.5159L105.302 12.511L105.302 12.5108L105.152 12.5159ZM104.554 11.9092L104.557 11.7592L104.556 11.7592L104.554 11.9092ZM103.942 12.5055L104.091 12.5169L104.091 12.5164L103.942 12.5055ZM108.938 12.5287C108.948 12.1119 108.616 11.7518 108.188 11.7593L108.193 12.0592C108.441 12.0549 108.644 12.2653 108.638 12.5215L108.938 12.5287ZM108.189 11.7593C107.973 11.7626 107.782 11.8245 107.642 11.9572C107.501 12.0909 107.431 12.279 107.426 12.4978L107.726 12.5039C107.73 12.3462 107.778 12.2414 107.848 12.1749C107.92 12.1073 108.031 12.0617 108.193 12.0593L108.189 11.7593ZM107.426 12.4977C107.422 12.7195 107.487 12.9095 107.624 13.0478C107.759 13.1844 107.946 13.2539 108.156 13.2695L108.178 12.9704C108.019 12.9585 107.907 12.9082 107.837 12.837C107.769 12.7675 107.723 12.6618 107.726 12.504L107.426 12.4977ZM108.157 13.2696C108.58 13.2999 108.93 12.9341 108.938 12.5281L108.638 12.5221C108.633 12.7757 108.411 12.987 108.178 12.9703L108.157 13.2696ZM104.543 13.2712C104.959 13.2761 105.316 12.9399 105.302 12.511L105.002 12.5208C105.01 12.7682 104.802 12.9742 104.546 12.9713L104.543 13.2712ZM105.302 12.5108C105.295 12.2961 105.231 12.1062 105.097 11.9685C104.963 11.8298 104.775 11.7627 104.557 11.7592L104.552 12.0592C104.711 12.0617 104.815 12.1089 104.882 12.1776C104.95 12.2473 104.997 12.3577 105.002 12.521L105.302 12.5108ZM104.556 11.7592C104.333 11.757 104.145 11.8246 104.008 11.9628C103.874 12.0989 103.807 12.2868 103.792 12.4947L104.091 12.5164C104.103 12.3566 104.152 12.2444 104.222 12.1734C104.29 12.1043 104.394 12.0576 104.553 12.0592L104.556 11.7592ZM103.792 12.4942C103.76 12.9173 104.14 13.2672 104.543 13.2712L104.546 12.9713C104.291 12.9687 104.074 12.7433 104.091 12.5169L103.792 12.4942Z" fill="#C30045"/>
<path fill-rule="evenodd" clip-rule="evenodd" d="M106.685 17.9699C106.485 17.9699 106.345 17.9547 106.285 17.9475C102.981 17.9295 101.041 14.5791 100.96 14.4351C100.857 14.2523 100.916 14.0179 101.093 13.9107C101.267 13.8021 101.498 13.8635 101.602 14.0463C101.619 14.0776 103.422 17.1804 106.311 17.1804L106.367 17.1849C106.485 17.2041 109.272 17.5817 111.116 13.9353C111.212 13.746 111.436 13.6733 111.619 13.7707C111.801 13.8703 111.871 14.1024 111.776 14.2913C110.098 17.6103 107.665 17.9699 106.685 17.9699Z" fill="#C30045"/>
<path d="M106.685 17.9699C106.485 17.9699 106.345 17.9547 106.285 17.9475C102.981 17.9295 101.041 14.5791 100.96 14.4351C100.857 14.2523 100.916 14.0179 101.093 13.9107C101.267 13.8021 101.498 13.8635 101.602 14.0463C101.619 14.0776 103.422 17.1804 106.311 17.1804L106.367 17.1849C106.485 17.2041 109.272 17.5817 111.116 13.9353C111.212 13.746 111.436 13.6733 111.619 13.7707C111.801 13.8703 111.871 14.1024 111.776 14.2913C110.098 17.6103 107.665 17.9699 106.685 17.9699" stroke="#C30045" stroke-width="0.3"/>
<mask id="path-16-outside-6_0_1978" maskUnits="userSpaceOnUse" x="116.147" y="6.06055" width="9" height="16" fill="black">
<rect fill="white" x="116.147" y="6.06055" width="9" height="16"/>
<path fill-rule="evenodd" clip-rule="evenodd" d="M117.147 7.28023H118.444V11.1808C119.501 8.73291 121.748 6.95686 124.42 7.06525V8.51733H124.289C121.166 8.51733 118.444 10.9124 118.444 15.3774V20.9999H117.147V7.28023Z"/>
</mask>
<path fill-rule="evenodd" clip-rule="evenodd" d="M117.147 7.28023H118.444V11.1808C119.501 8.73291 121.748 6.95686 124.42 7.06525V8.51733H124.289C121.166 8.51733 118.444 10.9124 118.444 15.3774V20.9999H117.147V7.28023Z" fill="#004B87"/>
<path d="M117.147 6.98023C116.982 6.98023 116.847 7.11455 116.847 7.28023C116.847 7.44592 116.982 7.58023 117.147 7.58023V6.98023ZM118.444 7.28023H118.744C118.744 7.11455 118.609 6.98023 118.444 6.98023V7.28023ZM118.444 11.1808H118.144C118.144 11.3231 118.243 11.4458 118.383 11.4746C118.522 11.5034 118.663 11.4304 118.719 11.2997L118.444 11.1808ZM124.42 7.06525H124.72C124.72 6.9043 124.593 6.77202 124.432 6.7655L124.42 7.06525ZM124.42 8.51733V8.81733C124.586 8.81733 124.72 8.68302 124.72 8.51733H124.42ZM118.444 20.9999V21.2999C118.609 21.2999 118.744 21.1655 118.744 20.9999H118.444ZM117.147 20.9999H116.847C116.847 21.1655 116.982 21.2999 117.147 21.2999V20.9999ZM117.447 7.28023C117.447 7.11455 117.313 6.98023 117.147 6.98023C116.982 6.98023 116.847 7.11455 116.847 7.28023H117.447ZM117.147 7.58023H118.444V6.98023H117.147V7.58023ZM118.144 7.28023V11.1808H118.744V7.28023H118.144ZM118.719 11.2997C119.739 8.93777 121.888 7.26278 124.408 7.36501L124.432 6.7655C121.608 6.65095 119.262 8.52805 118.168 11.0619L118.719 11.2997ZM124.12 7.06525V8.51733H124.72V7.06525H124.12ZM124.42 8.21733H124.289V8.81733H124.42V8.21733ZM124.289 8.21733C122.649 8.21733 121.106 8.84747 119.975 10.0692C118.844 11.2909 118.144 13.0831 118.144 15.3774H118.744C118.744 13.2067 119.404 11.5689 120.415 10.4768C121.426 9.38474 122.806 8.81733 124.289 8.81733V8.21733ZM118.144 15.3774V20.9999H118.744V15.3774H118.144ZM118.444 20.6999H117.147V21.2999H118.444V20.6999ZM117.447 20.9999V7.28023H116.847V20.9999H117.447Z" fill="#004B87" mask="url(#path-16-outside-6_0_1978)"/>
<path d="M126.571 20.9999C126.571 21.0827 126.638 21.1499 126.721 21.1499H127.933C128.016 21.1499 128.083 21.0827 128.083 20.9999V1C128.083 0.917157 128.016 0.85 127.933 0.85H126.721C126.638 0.85 126.571 0.917157 126.571 1V20.9999Z" fill="#004B87" stroke="#004B87" stroke-width="0.3" stroke-linecap="round" stroke-linejoin="round"/>
<mask id="path-19-outside-7_0_1978" maskUnits="userSpaceOnUse" x="129.232" y="0" width="16" height="22" fill="black">
<rect fill="white" x="129.232" width="16" height="22"/>
<path fill-rule="evenodd" clip-rule="evenodd" d="M142.959 13.7539V13.6992C142.959 10.0899 140.079 7.66699 137.088 7.66699C133.956 7.66699 131.444 9.89787 131.444 13.6725V13.7274C131.444 17.4189 134.069 19.7881 137.088 19.7881C140.079 19.7881 142.959 17.3381 142.959 13.7539ZM130.232 13.8564V13.8027C130.232 9.32873 133.668 6.60506 137.05 6.60506C139.854 6.60506 141.669 8.16886 142.824 9.89498V1H144.172V20.678H142.824V17.6019C141.616 19.4091 139.827 20.9999 137.05 20.9999C133.668 20.9999 130.232 18.3301 130.232 13.8564Z"/>
</mask>
<path fill-rule="evenodd" clip-rule="evenodd" d="M142.959 13.7539V13.6992C142.959 10.0899 140.079 7.66699 137.088 7.66699C133.956 7.66699 131.444 9.89787 131.444 13.6725V13.7274C131.444 17.4189 134.069 19.7881 137.088 19.7881C140.079 19.7881 142.959 17.3381 142.959 13.7539ZM130.232 13.8564V13.8027C130.232 9.32873 133.668 6.60506 137.05 6.60506C139.854 6.60506 141.669 8.16886 142.824 9.89498V1H144.172V20.678H142.824V17.6019C141.616 19.4091 139.827 20.9999 137.05 20.9999C133.668 20.9999 130.232 18.3301 130.232 13.8564Z" fill="#004B87"/>
<path d="M142.824 9.89498L142.575 10.0618C142.648 10.1716 142.785 10.2204 142.911 10.182C143.037 10.1436 143.124 10.0271 143.124 9.89498H142.824ZM142.824 1V0.7C142.658 0.7 142.524 0.834315 142.524 1H142.824ZM144.172 1H144.472C144.472 0.834315 144.337 0.7 144.172 0.7V1ZM144.172 20.678V20.978C144.337 20.978 144.472 20.8437 144.472 20.678H144.172ZM142.824 20.678H142.524C142.524 20.8437 142.658 20.978 142.824 20.978V20.678ZM142.824 17.6019H143.124C143.124 17.4698 143.037 17.3532 142.911 17.3149C142.785 17.2765 142.648 17.3254 142.574 17.4352L142.824 17.6019ZM143.259 13.7539V13.6992H142.659V13.7539H143.259ZM143.259 13.6992C143.259 9.91459 140.235 7.36699 137.088 7.36699V7.96699C139.924 7.96699 142.659 10.2652 142.659 13.6992H143.259ZM137.088 7.36699C135.45 7.36699 133.959 7.95143 132.878 9.04317C131.796 10.1358 131.144 11.7165 131.144 13.6725H131.744C131.744 11.8539 132.348 10.4317 133.305 9.46533C134.263 8.49799 135.594 7.96699 137.088 7.96699V7.36699ZM131.144 13.6725V13.7274H131.744V13.6725H131.144ZM131.144 13.7274C131.144 17.5791 133.898 20.0881 137.088 20.0881V19.4881C134.24 19.4881 131.744 17.2587 131.744 13.7274H131.144ZM137.088 20.0881C140.236 20.0881 143.259 17.5124 143.259 13.7539H142.659C142.659 17.1637 139.923 19.4881 137.088 19.4881V20.0881ZM130.532 13.8564V13.8027H129.932V13.8564H130.532ZM130.532 13.8027C130.532 9.50366 133.825 6.90506 137.05 6.90506V6.30506C133.512 6.30506 129.932 9.15379 129.932 13.8027H130.532ZM137.05 6.90506C139.721 6.90506 141.454 8.38716 142.575 10.0618L143.073 9.72814C141.884 7.95055 139.987 6.30506 137.05 6.30506V6.90506ZM143.124 9.89498V1H142.524V9.89498H143.124ZM142.824 1.3H144.172V0.7H142.824V1.3ZM143.872 1V20.678H144.472V1H143.872ZM144.172 20.378H142.824V20.978H144.172V20.378ZM143.124 20.678V17.6019H142.524V20.678H143.124ZM142.574 17.4352C141.397 19.1969 139.689 20.6999 137.05 20.6999V21.2999C139.965 21.2999 141.835 19.6213 143.073 17.7687L142.574 17.4352ZM137.05 20.6999C133.821 20.6999 130.532 18.1522 130.532 13.8564H129.932C129.932 18.5081 133.515 21.2999 137.05 21.2999V20.6999Z" fill="#004B87" mask="url(#path-19-outside-7_0_1978)"/>
</svg>
