<svg width="20" height="20" viewBox="0 0 20 20" fill="none" xmlns="http://www.w3.org/2000/svg">
<path d="M15.311 17.4575L13.828 17.0505C13.1758 16.872 12.6307 16.4244 12.3291 15.8198L12.0102 15.1826L12.4069 14.3892C12.4069 14.3892 14.3152 14.167 15.1841 13.5957C15.1841 13.5957 13.9938 11.6612 13.9938 10.025C13.9938 6.82969 12.7973 4.86742 9.62972 4.86742L9.23298 5.26416C7.77536 5.26416 6.05906 6.82969 6.05906 10.025C6.05906 11.6612 4.86885 13.5957 4.86885 13.5957C5.73771 14.167 7.64602 14.3892 7.64602 14.3892L8.04276 15.1826L7.7214 15.8246C7.42067 16.426 6.87952 16.8727 6.23204 17.0529L4.74745 17.4671M19.1499 10.0249C19.1499 15.0643 15.0643 19.1499 10.0249 19.1499C4.98552 19.1499 0.899902 15.0643 0.899902 10.0249C0.899902 4.98552 4.98552 0.899902 10.0249 0.899902C15.0643 0.899902 19.1499 4.98552 19.1499 10.0249Z" stroke="#555555" stroke-linecap="round" stroke-linejoin="round"/>
</svg>
